<?xml version="1.0" encoding="UTF-8"?> <svg xmlns="http://www.w3.org/2000/svg" width="108" height="52" viewBox="0 0 108 52" fill="none"><path d="M52.1117 15.7117H53.6237L60.3791 30.239H58.1735L56.1622 25.9646H49.7397L47.8532 30.239H45.6337L52.1117 15.7117ZM55.2883 24.1208L52.8608 18.8826L50.6136 24.1208H55.2883Z" fill="black"></path><path d="M73.3362 15.7117H75.3475V30.239H73.1697V18.9245L68.5505 24.5119H68.1482L63.4597 18.9245V30.239H61.3096V15.7117H63.3348L68.3424 21.6623L73.3362 15.7117Z" fill="black"></path><path d="M88.4411 15.7117H90.3969V30.239H88.6908L79.0362 19.0502V30.239H77.1081V15.7117H78.7588L88.4411 26.9564V15.7117Z" fill="black"></path><path d="M49.9353 33.2422V36.4131H46.3564V33.2422H45.649V40.3802H46.3564V37.0137H49.9353V40.3802H50.6427V33.2422H49.9353Z" fill="black"></path><path d="M55.6358 40.2263C55.1919 40.4079 54.6093 40.5196 54.1377 40.5196C52.4176 40.5196 51.7795 39.3602 51.7795 37.7818C51.7795 36.1894 52.6534 35.0439 53.9712 35.0439C55.4277 35.0439 56.0381 36.2313 56.0381 37.6281V37.9494H52.487C52.487 39.0529 53.0835 39.9469 54.1932 39.9469C54.6648 39.9469 55.3445 39.7513 55.6497 39.5558V40.2263H55.6358ZM55.3168 37.4046C55.3168 36.4967 54.9561 35.5887 53.999 35.5887C53.0557 35.5887 52.4731 36.5386 52.4731 37.4046H55.3168Z" fill="black"></path><path d="M60.0193 39.5418H60.0054C59.7141 40.1704 58.9928 40.5056 58.3547 40.5056C56.8843 40.5056 56.6485 39.4999 56.6485 39.0389C56.6485 37.2929 58.4934 37.2091 59.839 37.2091H59.9638V36.9437C59.9638 36.0497 59.6448 35.6027 58.7847 35.6027C58.2437 35.6027 57.7444 35.7284 57.2589 36.0357V35.4071C57.6611 35.2116 58.327 35.0439 58.7847 35.0439C60.0609 35.0439 60.6019 35.6306 60.6019 36.9856V39.2904C60.6019 39.7094 60.6019 40.0307 60.6574 40.3799H60.0332V39.5418H60.0193ZM59.9638 37.7538H59.7835C58.6738 37.7538 57.356 37.8656 57.356 39.011C57.356 39.6955 57.8415 39.9609 58.4379 39.9609C59.9361 39.9609 59.9777 38.6339 59.9777 38.0751V37.7538H59.9638Z" fill="black"></path><path d="M62.6961 32.7116H62.058V40.3803H62.6961V32.7116Z" fill="black"></path><path d="M66.7189 35.7286H65.5399V39.109C65.5399 39.5839 65.7063 39.975 66.2334 39.975C66.4831 39.975 66.6357 39.9192 66.8299 39.8493L66.8715 40.3801C66.7189 40.436 66.3999 40.5198 66.0809 40.5198C64.9434 40.5198 64.9018 39.7376 64.9018 38.7737V35.7286H63.8892V35.1699H64.9018V33.9127L65.5399 33.6892V35.1699H66.7189V35.7286Z" fill="black"></path><path d="M68.1206 32.7116H68.7587V36.0501H68.7726C69.05 35.4774 69.6326 35.0443 70.3817 35.0443C71.7688 35.0443 72.1434 35.9802 72.1434 37.2653V40.3803H71.5053V37.2653C71.5053 36.3574 71.3388 35.5891 70.2707 35.5891C69.1333 35.5891 68.731 36.6787 68.731 37.5866V40.3803H68.0929V32.7116H68.1206Z" fill="black"></path><path d="M77.039 35.8688C76.6922 35.7151 76.2761 35.6033 75.9293 35.6033C74.6809 35.6033 73.9734 36.5113 73.9734 37.7824C73.9734 38.9698 74.6809 39.9615 75.8599 39.9615C76.2622 39.9615 76.6367 39.8637 77.0251 39.7241L77.0806 40.3247C76.6367 40.4784 76.2345 40.5063 75.749 40.5063C74.0844 40.5063 73.266 39.2212 73.266 37.7685C73.266 36.1621 74.2925 35.0306 75.8183 35.0306C76.4425 35.0306 76.8864 35.1703 77.0667 35.2402L77.039 35.8688Z" fill="black"></path><path d="M81.3253 39.5418H81.3114C81.0201 40.1704 80.2988 40.5056 79.6607 40.5056C78.1903 40.5056 77.9545 39.4999 77.9545 39.0389C77.9545 37.2929 79.7994 37.2091 81.145 37.2091H81.2698V36.9437C81.2698 36.0497 80.9508 35.6027 80.0907 35.6027C79.5497 35.6027 79.0504 35.7284 78.5649 36.0357V35.4071C78.9671 35.2116 79.633 35.0439 80.0907 35.0439C81.3669 35.0439 81.9079 35.6306 81.9079 36.9856V39.2904C81.9079 39.7094 81.9079 40.0307 81.9634 40.3799H81.3392V39.5418H81.3253ZM81.2698 37.7538H81.0895C79.9798 37.7538 78.662 37.8656 78.662 39.011C78.662 39.6955 79.1475 39.9609 79.7439 39.9609C81.2421 39.9609 81.2837 38.6339 81.2837 38.0751V37.7538H81.2698Z" fill="black"></path><path d="M83.2818 36.3291C83.2818 35.7563 83.2818 35.5468 83.2402 35.1697H83.8783V36.1754H83.8922C84.128 35.5887 84.558 35.0439 85.2239 35.0439C85.3764 35.0439 85.5568 35.0719 85.6677 35.0998V35.7703C85.529 35.7284 85.3626 35.7144 85.1961 35.7144C84.1835 35.7144 83.9061 36.8599 83.9061 37.7957V40.3799H83.268V36.3291H83.2818Z" fill="black"></path><path d="M89.9677 40.2263C89.5238 40.4079 88.9412 40.5196 88.4696 40.5196C86.7495 40.5196 86.1115 39.3602 86.1115 37.7818C86.1115 36.1894 86.9854 35.0439 88.3031 35.0439C89.7596 35.0439 90.37 36.2313 90.37 37.6281V37.9494H86.8189C86.8189 39.0529 87.4154 39.9469 88.5251 39.9469C88.9967 39.9469 89.6764 39.7513 89.9816 39.5558V40.2263H89.9677ZM89.6487 37.4046C89.6487 36.4967 89.288 35.5887 88.3309 35.5887C87.3876 35.5887 86.805 36.5386 86.805 37.4046H89.6487Z" fill="black"></path><path d="M12.5093 30.2386H17.1008L20.2773 25.2379L17.836 21.8436L12.5093 30.2386Z" fill="black"></path><path d="M22.4418 21.8436H17.8365L23.8844 30.2386L26.2287 27.1097L22.4418 21.8436Z" fill="black"></path><path d="M22.872 13.8818L18.4054 20.9639H22.983L26.2705 15.7536L24.2592 12.5828C23.732 12.8621 23.2604 13.2812 22.872 13.8818Z" fill="black"></path><path d="M29.7653 14.0214C29.2244 13.1833 28.4892 12.5267 27.5182 12.2753C26.4501 12.0099 25.16 12.1217 24.2861 12.5687L29.5989 20.9498H34.1903C34.1626 20.9637 30.2092 14.7198 29.7653 14.0214Z" fill="black"></path><path d="M17.8221 40.3795H22.3996L26.464 34.5267C25.3543 32.7527 24.3139 31.1044 24.3139 31.1044L17.8221 40.3795Z" fill="black"></path><path d="M28.8637 31.1196H24.3277C24.3277 31.1196 28.9747 38.5229 29.0579 38.6487C29.4463 39.2633 29.9873 39.7522 30.3896 39.9617L32.3177 36.5953L28.8637 31.1196Z" fill="black"></path><path d="M39.6146 31.1196C39.6008 31.6644 39.4343 32.1812 39.1985 32.6003C37.9223 34.8353 35.7861 38.5928 35.5919 38.8861C35.3422 39.2912 34.9122 39.6963 34.4406 39.9477C33.8857 40.2411 33.1783 40.3947 32.4015 40.3947C32.4015 40.3947 31.0004 40.3528 30.3762 39.9757L35.4393 31.1336L39.6146 31.1196Z" fill="black"></path><path d="M23.8841 30.2386H28.4894L32.2486 25.1681L30.1401 21.8436L23.8841 30.2386Z" fill="black"></path><path d="M39.6012 30.2391C39.5457 29.7781 39.3792 29.1914 38.9631 28.5349L34.7323 21.858H30.1408L35.4675 30.253H39.6012V30.2391Z" fill="black"></path><path d="M94.2264 15.7117C95.0587 15.7117 95.7384 16.3962 95.7384 17.2343C95.7384 18.0724 95.0587 18.7569 94.2264 18.7569C93.3941 18.7569 92.7144 18.0724 92.7144 17.2343C92.7144 16.3962 93.3941 15.7117 94.2264 15.7117ZM94.2264 18.5334C94.92 18.5334 95.4471 17.9746 95.4471 17.2343C95.4471 16.5079 94.92 15.9352 94.2264 15.9352C93.519 15.9352 93.0057 16.494 93.0057 17.2343C93.0057 17.9607 93.5328 18.5334 94.2264 18.5334ZM93.6438 16.3403H94.3235C94.7258 16.3403 94.9339 16.5079 94.9339 16.8432C94.9339 17.1365 94.7535 17.3321 94.4761 17.3321L94.9755 18.1143H94.6703L94.1709 17.3321H93.9212V18.1143H93.6299V16.3403H93.6438ZM93.9351 17.1086H94.2819C94.5038 17.1086 94.6426 17.0667 94.6426 16.8292C94.6426 16.6197 94.4622 16.5638 94.2819 16.5638H93.9351V17.1086Z" fill="black"></path></svg> 