<?xml version="1.0" encoding="UTF-8"?> <svg xmlns="http://www.w3.org/2000/svg" width="108" height="52" viewBox="0 0 108 52" fill="none"><path d="M88.5879 32.5501C88.3675 32.5501 88.2158 32.3962 88.2158 32.1749V21.1813H84.5087C84.2883 21.1813 84.1363 21.0281 84.1363 20.8066V19.2901C84.1363 19.068 84.2884 18.9144 84.5087 18.9144H94.3762C94.5964 18.9144 94.748 19.0682 94.748 19.2901V20.8065C94.748 21.0279 94.5964 21.1813 94.3762 21.1813H90.6694V32.1747C90.6694 32.3962 90.5169 32.5501 90.2973 32.5501H88.5879ZM60.1912 27.0615L58.2453 21.4373L56.2819 27.0615H60.1912ZM64.5072 32.1059C64.5923 32.328 64.4566 32.5501 64.2196 32.5501H62.4597C62.2057 32.5501 62.0532 32.4312 61.9683 32.1914L60.9702 29.2949H55.5039L54.5041 32.1914C54.4201 32.4312 54.2672 32.5501 54.0138 32.5501H52.3557C52.1354 32.5501 51.9828 32.328 52.0675 32.1059L56.6541 19.256C56.7389 19.0166 56.8912 18.915 57.1446 18.915H59.4125C59.6667 18.915 59.8359 19.0167 59.9205 19.256L64.5072 32.1059ZM77.654 30.709C78.7367 30.709 79.4649 30.1815 80.0574 29.2777L77.316 26.3117C76.2662 26.9087 75.5888 27.5045 75.5888 28.6979C75.589 29.8741 76.5363 30.709 77.654 30.709ZM78.4155 20.721C77.5357 20.721 77.028 21.284 77.028 22.0338C77.028 22.6133 77.332 23.1247 78.0262 23.8748C79.2277 23.1755 79.7358 22.7496 79.7358 21.9999C79.7358 21.3005 79.2959 20.721 78.4155 20.721ZM85.9138 32.0728C86.1336 32.3116 85.9985 32.5501 85.7269 32.5501H83.5775C83.2899 32.5501 83.1376 32.4816 82.9515 32.2598L81.6652 30.8287C80.8022 31.9878 79.5996 32.8568 77.6029 32.8568C75.132 32.8568 73.1851 31.357 73.1851 28.7838C73.1851 26.8061 74.235 25.7491 75.8261 24.863C75.047 23.9597 74.6922 23.0052 74.6922 22.1705C74.6922 20.0564 76.1646 18.6079 78.3813 18.6079C80.6493 18.6079 82.0374 19.9549 82.0374 21.9486C82.0374 23.6531 80.8191 24.6067 79.5324 25.3231L81.4283 27.3861L82.4943 25.5105C82.6296 25.2893 82.782 25.2038 83.0524 25.2038H84.6938C84.965 25.2038 85.1174 25.3917 84.9487 25.6813L83.0527 28.9533L85.9138 32.0728ZM69.0233 32.5501C69.2433 32.5501 69.3963 32.3962 69.3963 32.1749V21.1813H73.1023C73.3223 21.1813 73.4745 21.0281 73.4745 20.8066V19.2901C73.4745 19.068 73.3223 18.9144 73.1023 18.9144H63.2348C63.0145 18.9144 62.8624 19.0682 62.8624 19.2901V20.8065C62.8624 21.0279 63.0145 21.1813 63.2348 21.1813H66.9408V32.1747C66.9408 32.3962 67.0936 32.5501 67.3134 32.5501H69.0233Z" fill="black"></path><path d="M18.934 39.1815C21.8043 41.4199 25.407 42.7648 29.3158 42.7648C33.5933 42.7648 37.4929 41.1649 40.469 38.5386C40.5051 38.5065 40.4873 38.4853 40.4517 38.5065C39.1162 39.4051 35.31 41.3665 29.316 41.3665C24.1069 41.3665 20.8151 40.1956 18.956 39.1502C18.9205 39.1326 18.9073 39.1594 18.934 39.1815ZM30.465 40.053C34.6313 40.053 39.2095 38.9088 41.9477 36.644C42.697 36.0269 43.4107 35.2056 44.0499 34.1018C44.4179 33.4668 44.7778 32.7122 45.0709 31.9706C45.084 31.9344 45.0618 31.9168 45.0348 31.9574C42.4885 35.7324 35.115 38.087 27.5014 38.087C22.1199 38.087 16.3295 36.3533 14.0625 33.043C14.0402 33.0124 14.0178 33.0255 14.0314 33.0606C16.1433 37.5827 22.5502 40.053 30.465 40.053ZM25.913 32.5511C17.248 32.5511 13.1622 28.4855 12.4211 25.711C12.4119 25.6708 12.3857 25.6796 12.3857 25.7157C12.3857 26.6497 12.4785 27.8551 12.6381 28.6552C12.7143 29.0447 13.0289 29.6559 13.4902 30.143C15.5884 32.3463 20.8195 35.4336 29.8789 35.4336C42.222 35.4336 45.0443 31.2915 45.6206 29.9293C46.0327 28.9552 46.2462 27.1947 46.2462 25.7158C46.2462 25.3579 46.2373 25.0721 46.2239 24.7914C46.2239 24.7459 46.1977 24.7422 46.1886 24.7866C45.5718 28.1197 35.0261 32.5511 25.913 32.5511ZM14.0178 18.4016C13.5213 19.3943 12.971 21.069 12.8073 21.9358C12.7356 22.3072 12.7662 22.4855 12.8955 22.7627C13.934 24.9826 19.1873 28.5344 31.441 28.5344C38.9167 28.5344 44.724 26.6842 45.6649 23.3078C45.8381 22.6862 45.8474 22.03 45.6249 21.1457C45.3762 20.1576 44.9105 19.0053 44.5163 18.1962C44.5033 18.1698 44.4803 18.1737 44.485 18.2049C44.6314 22.6334 32.3728 25.4875 26.1876 25.4875C19.488 25.4875 13.8986 22.7984 13.8986 19.4028C13.8986 19.0765 13.9656 18.7502 14.0493 18.4106C14.0577 18.3796 14.0313 18.3744 14.0178 18.4016ZM40.4964 12.9644C40.5676 13.0767 40.6031 13.1965 40.6031 13.3579C40.6031 15.2522 34.8482 18.6033 25.6872 18.6033C18.956 18.6033 17.6958 16.0877 17.6958 14.4879C17.6958 13.916 17.9135 13.3308 18.393 12.7366C18.4192 12.7012 18.397 12.6876 18.3667 12.7139C17.4923 13.4605 16.6888 14.3006 15.984 15.2074C15.6472 15.6363 15.4381 16.0162 15.4381 16.2438C15.4381 19.5592 23.69 21.9629 31.4057 21.9629C39.6269 21.9629 43.296 19.2592 43.296 16.8831C43.296 16.0339 42.9679 15.5382 42.1285 14.5771C41.5837 13.9519 41.0683 13.4428 40.5228 12.9417C40.4964 12.9198 40.4781 12.9377 40.4964 12.9644ZM37.9761 11.0705C35.4388 9.53835 32.4924 8.66669 29.316 8.66669C26.1174 8.66669 23.0822 9.56879 20.5358 11.1415C19.772 11.6151 19.3421 11.9946 19.3421 12.4824C19.3421 13.9205 22.6782 15.4667 28.5967 15.4667C34.4539 15.4667 38.9968 13.7731 38.9968 12.1428C38.9968 11.7537 38.6592 11.4814 37.9761 11.0705Z" fill="black"></path></svg> 