<?xml version="1.0" encoding="UTF-8"?> <svg xmlns="http://www.w3.org/2000/svg" width="288" height="60" viewBox="0 0 288 60" fill="none"><path d="M205.885 25.3741C205.885 24.8946 205.545 24.5748 204.986 24.5748L203.886 24.5948L203.907 27.0326H204.506V26.1934H204.865L205.385 27.0326H206.084L205.465 26.0935C205.593 26.0224 205.699 25.918 205.773 25.7914C205.847 25.6648 205.885 25.5207 205.885 25.3741ZM204.865 25.6938H204.486V25.0744H204.925C205.005 25.0657 205.084 25.0879 205.148 25.1362C205.211 25.1846 205.253 25.2555 205.265 25.3341V25.3541C205.264 25.4035 205.252 25.452 205.23 25.4966C205.209 25.5411 205.178 25.5806 205.141 25.6126C205.103 25.6446 205.059 25.6684 205.012 25.6824C204.964 25.6963 204.914 25.7002 204.865 25.6938ZM116.227 36.6437C115.208 36.6437 114.509 35.8444 114.509 34.6655V29.2905H118.705V25.494H114.519L114.479 21.138H109.843L109.883 35.6446C109.883 38.5819 111.842 40.5801 114.719 40.5801C116.237 40.5801 117.676 40.3602 118.815 39.8407V36.1441C118.006 36.5195 117.118 36.691 116.227 36.6437ZM127.297 25.2542C122.981 25.2542 119.664 28.6111 119.664 33.067C119.664 37.4829 122.981 40.56 127.557 40.56C130.135 40.56 132.552 39.6409 134.031 37.7427L130.474 36.1242C129.755 36.7836 128.656 37.0433 127.677 37.0433C126.078 37.0433 124.48 36.2241 124.26 34.5457H134.87C135.03 33.9459 135.11 33.3279 135.11 32.7073C135.11 28.1316 131.773 25.2542 127.307 25.2542H127.297ZM124.26 31.6084C124.4 29.6102 125.839 28.691 127.417 28.691C129.195 28.691 130.534 29.6901 130.534 31.4085V31.6084H124.26ZM105.437 36.6437C104.418 36.6437 103.719 35.8444 103.719 34.6655V29.2905H107.915V25.494H103.729L103.689 21.138H99.0533L99.0933 35.6446C99.0933 38.5819 101.051 40.5801 103.929 40.5801C105.447 40.5801 106.886 40.3602 108.025 39.8407V36.1441C107.217 36.5213 106.328 36.6929 105.437 36.6437ZM89.1525 25.2542C85.1761 25.2542 81 27.8718 81 33.1469C81 37.5429 83.9573 40.62 87.6938 40.62C89.8318 40.62 91.4503 39.7608 92.5094 38.2422L92.6492 40.3602H97.1351V33.3267C97.1351 27.9717 93.1888 25.2542 89.1525 25.2542ZM89.1525 36.5637C87.1343 36.5637 85.6757 35.0652 85.6757 32.9471C85.6757 30.8291 87.1143 29.3305 89.1525 29.3305C91.0307 29.3305 92.5893 30.9689 92.5893 32.9471C92.5893 34.9253 91.0307 36.5637 89.1525 36.5637ZM204.765 23.4759C203.307 23.4958 202.368 24.435 202.388 25.8337C202.408 27.2324 203.367 28.1515 204.826 28.1316C206.244 28.1116 207.204 27.1725 207.183 25.7538C207.163 24.3351 206.204 23.4559 204.765 23.4759ZM204.826 27.7319C203.686 27.7519 202.907 26.9926 202.907 25.8337C202.907 24.6748 203.647 23.8955 204.785 23.8755C205.924 23.8555 206.684 24.6148 206.704 25.7937C206.704 26.9327 205.944 27.712 204.836 27.7319H204.826ZM182.107 25.514L178.869 34.9053L175.593 25.514H170.557L176.592 40.3403H181.108L187.142 25.514H182.107ZM194.115 25.2542C189.8 25.2542 186.483 28.6111 186.483 33.067C186.483 37.4829 189.8 40.56 194.375 40.56C196.953 40.56 199.371 39.6409 200.849 37.7427L197.293 36.1242C196.573 36.7836 195.474 37.0433 194.495 37.0433C192.896 37.0433 191.298 36.2241 191.078 34.5457H201.689C201.848 33.9459 201.929 33.3279 201.929 32.7073C201.929 28.1316 198.591 25.2542 194.115 25.2542ZM197.352 31.6084H191.078C191.218 29.6102 192.657 28.691 194.235 28.691C196.013 28.691 197.352 29.6901 197.352 31.4085V31.6084ZM166.98 19C165.342 19 164.103 20.099 164.103 21.6376C164.103 23.1761 165.342 24.3151 166.98 24.3151C168.619 24.3151 169.858 23.1961 169.858 21.6376C169.858 20.079 168.639 19 166.98 19ZM145.94 25.2342C145.003 25.2191 144.078 25.4467 143.255 25.8949C142.433 26.3431 141.74 26.9966 141.244 27.7919L141.084 25.514H136.609V40.3403H141.244V32.5674C141.344 30.7092 142.843 29.2905 144.481 29.2905C146.32 29.2905 147.159 30.6692 147.159 32.4076V40.3203H151.774V31.6883C151.774 27.9317 149.487 25.2342 145.94 25.2342ZM160.087 36.6437C159.068 36.6437 158.368 35.8444 158.368 34.6655V29.2905H162.565V25.494H158.368L158.329 21.138H153.693L153.733 35.6446C153.733 38.5819 155.691 40.5801 158.568 40.5801C160.087 40.5801 161.525 40.3602 162.664 39.8407V36.1441C161.86 36.5197 160.974 36.6913 160.087 36.6437ZM164.642 25.514V40.3403H169.319V25.514C168.625 25.9733 167.812 26.2183 166.98 26.2183C166.149 26.2183 165.336 25.9733 164.642 25.514Z" fill="#1A1E22"></path></svg> 