<?xml version="1.0" encoding="UTF-8"?> <svg xmlns="http://www.w3.org/2000/svg" width="288" height="60" viewBox="0 0 288 60" fill="none"><path fill-rule="evenodd" clip-rule="evenodd" d="M114.294 33.3616C113.727 32.5932 112.765 31.9661 111.598 31.9661C109.44 31.9661 107.882 33.6143 107.882 35.8456C107.882 38.0769 109.44 39.7251 111.598 39.7251C112.607 39.7251 113.55 39.2949 114.044 38.866C114.077 38.8375 114.095 38.796 114.095 38.7519V37.5417C114.095 37.4665 114.034 37.4044 113.958 37.4044H111.181C111.071 37.4044 110.982 37.3136 110.982 37.2048V35.4076C110.982 35.2974 111.072 35.2067 111.181 35.2067H116.16V32.5401L114.553 33.4212C114.467 33.4678 114.353 33.4393 114.296 33.3616H114.294ZM90.922 34.6237H93.9023C94.751 34.6237 95.2823 34.1442 95.2823 33.3836C95.2823 32.658 94.764 32.1436 93.9023 32.1436H90.922C90.8978 32.1432 90.8737 32.1477 90.8512 32.1569C90.8287 32.166 90.8083 32.1795 90.7912 32.1967C90.774 32.2138 90.7605 32.2343 90.7513 32.2568C90.7422 32.2792 90.7377 32.3033 90.7381 32.3276V34.4397C90.7377 34.4639 90.7422 34.488 90.7513 34.5105C90.7605 34.533 90.774 34.5534 90.7912 34.5705C90.8083 34.5877 90.8287 34.6012 90.8512 34.6104C90.8737 34.6195 90.8978 34.624 90.922 34.6237ZM102.979 41.5819C102.979 41.6726 102.905 41.7464 102.815 41.7464H100.631C100.54 41.7464 100.467 41.6726 100.467 41.5819V30.095C100.467 30.0043 100.54 29.9304 100.631 29.9304H102.816C102.907 29.9304 102.98 30.0043 102.98 30.095L102.979 41.5819ZM115.531 14.0781L93.8751 29.9278H94.4323C96.6791 29.9278 97.8297 31.3622 97.8297 32.9392C97.8297 34.1663 97.1896 35.072 96.3305 35.4724C96.201 35.5398 96.1932 35.7419 96.3383 35.8015C97.3399 36.2123 98.0617 37.2851 98.0617 38.5381C98.0617 40.3263 96.8955 41.7451 94.6279 41.7451H88.407C88.3827 41.7455 88.3586 41.741 88.3362 41.7318C88.3137 41.7227 88.2933 41.7092 88.2761 41.692C88.2589 41.6749 88.2454 41.6544 88.2363 41.632C88.2272 41.6095 88.2226 41.5854 88.223 41.5611V34.0652L72.1621 45.8242C71.855 46.0496 72.0131 46.5368 72.3953 46.5368H115.764C115.982 46.5368 116.158 46.3606 116.158 46.1416V40.1812C114.997 41.2644 113.472 41.9434 111.597 41.9434C108.13 41.9434 105.3 39.5514 105.3 35.8313C105.3 32.093 108.131 29.7192 111.597 29.7192C113.778 29.7192 115.225 30.7079 116.158 31.9168V14.3956C116.158 14.0716 115.792 13.8864 115.531 14.0768V14.0781ZM90.9208 39.5294H93.9917C94.9298 39.5294 95.4948 39.0331 95.4948 38.1818C95.4948 37.438 94.9765 36.8342 93.9917 36.8342H90.9208C90.8965 36.8339 90.8724 36.8384 90.8499 36.8475C90.8274 36.8566 90.807 36.8702 90.7899 36.8873C90.7727 36.9045 90.7592 36.9249 90.75 36.9474C90.7409 36.9699 90.7364 36.994 90.7368 37.0182V39.3428C90.7364 39.3671 90.7409 39.3911 90.75 39.4136C90.7592 39.4361 90.7727 39.4565 90.7899 39.4737C90.807 39.4908 90.8274 39.5044 90.8499 39.5135C90.8724 39.5226 90.8965 39.5272 90.9208 39.5268V39.5294ZM128.731 39.1705L127.377 38.4682C127.334 38.4471 127.284 38.4427 127.238 38.4558C127.192 38.469 127.152 38.4988 127.127 38.5394C126.554 39.4374 125.498 40.1047 124.351 40.1047C122.097 40.1047 120.425 38.2971 120.425 35.8352C120.425 33.337 122.11 31.5657 124.351 31.5657C125.498 31.5657 126.554 32.2161 127.127 33.1271C127.153 33.1681 127.193 33.1981 127.24 33.2111C127.286 33.224 127.336 33.219 127.379 33.197L128.723 32.4649C128.827 32.4092 128.862 32.2835 128.798 32.1824C127.948 30.8439 126.541 29.7231 124.351 29.7231C120.989 29.7231 118.391 32.185 118.391 35.8352C118.391 39.4672 121.002 41.9473 124.351 41.9473C126.539 41.9473 127.93 40.7979 128.809 39.4594C128.873 39.3558 128.839 39.2288 128.731 39.1744V39.1705ZM135.786 40.1034C133.48 40.1034 132.011 38.2608 132.011 35.8339C132.022 33.3784 133.493 31.5644 135.799 31.5644C138.089 31.5644 139.575 33.3784 139.575 35.8339C139.575 38.2608 138.089 40.1034 135.799 40.1034H135.786ZM134.173 29.9317C131.636 30.6107 129.962 32.912 129.962 35.8378C129.962 39.3622 132.372 41.9499 135.788 41.9499C138.698 41.9499 140.893 40.0555 141.467 37.2851C142.4 32.7953 138.463 28.772 134.174 29.9188L134.173 29.9317ZM155.786 29.9188H153.195C153.139 29.9179 153.083 29.9346 153.037 29.9664C152.991 29.9981 152.955 30.0435 152.936 30.0963L149.803 38.2051L146.654 30.0963C146.611 29.99 146.509 29.9188 146.395 29.9188H143.803C143.725 29.9188 143.665 29.981 143.665 30.0574V41.5961C143.665 41.6739 143.727 41.7348 143.803 41.7348H145.597C145.674 41.7348 145.735 41.6726 145.735 41.5961V32.6113L149.337 41.6726C149.353 41.7114 149.389 41.7348 149.428 41.7348H150.177C150.216 41.7348 150.255 41.7089 150.268 41.6726L153.853 32.6113V41.5961C153.853 41.6739 153.915 41.7348 153.992 41.7348H155.812C155.89 41.7348 155.951 41.6726 155.951 41.5961V30.0574C155.951 29.9797 155.889 29.9188 155.812 29.9188H155.786ZM182.263 29.9188H174.601C174.471 29.9188 174.387 30.0146 174.387 30.1326V41.5352C174.387 41.6648 174.483 41.749 174.601 41.749H182.261C182.391 41.749 182.475 41.6531 182.475 41.5352V40.1384C182.475 40.0088 182.379 39.9246 182.261 39.9246H176.674C176.544 39.9246 176.46 39.8287 176.46 39.7108V36.842C176.46 36.7124 176.556 36.6282 176.674 36.6282H182.139C182.269 36.6282 182.353 36.5323 182.353 36.4144V35.0176C182.353 34.888 182.257 34.8038 182.139 34.8038H176.674C176.544 34.8038 176.46 34.7079 176.46 34.59V31.9699C176.46 31.8404 176.556 31.7561 176.674 31.7561H182.264C182.393 31.7561 182.478 31.6603 182.478 31.5423V30.1455C182.478 30.0159 182.382 29.9317 182.264 29.9317L182.263 29.9188ZM190.338 35.4996H187.714C187.584 35.4996 187.503 35.4037 187.503 35.2884V31.9531C187.503 31.8235 187.597 31.7419 187.714 31.7419H190.351C191.517 31.7419 192.368 32.4675 192.368 33.6026C192.368 34.7688 191.518 35.4983 190.351 35.4983L190.338 35.4996ZM191.964 37.0325C193.286 36.6995 194.478 35.5683 194.478 33.6207C194.478 31.4244 192.938 29.9188 190.59 29.9188H185.628C185.498 29.9188 185.416 30.0134 185.416 30.13V41.5236C185.416 41.6531 185.511 41.7361 185.628 41.7361H187.273C187.403 41.7361 187.484 41.6402 187.484 41.5236V37.5352C187.484 37.4056 187.579 37.324 187.696 37.324H189.432C189.507 37.324 189.562 37.3629 189.613 37.4277L192.093 41.6324C192.132 41.6972 192.201 41.7361 192.275 41.7361H194.18C194.346 41.7361 194.448 41.5547 194.361 41.4121L191.821 37.3486C191.744 37.2242 191.816 37.0675 191.959 37.0312L191.964 37.0325ZM210.752 31.7432H216.353C216.38 31.7432 216.407 31.7378 216.432 31.7273C216.458 31.7168 216.48 31.7014 216.5 31.682C216.519 31.6626 216.534 31.6396 216.545 31.6143C216.555 31.589 216.56 31.5619 216.56 31.5346V30.139C216.56 30.0095 216.467 29.9317 216.353 29.9317H208.682C208.627 29.9317 208.574 29.9536 208.535 29.9924C208.496 30.0313 208.474 30.0841 208.474 30.139V41.5391C208.474 41.6687 208.568 41.7464 208.682 41.7464H216.353C216.38 41.7464 216.407 41.741 216.432 41.7305C216.458 41.72 216.48 41.7046 216.5 41.6853C216.519 41.6659 216.534 41.6429 216.545 41.6176C216.555 41.5923 216.56 41.5652 216.56 41.5378V40.1293C216.56 40.102 216.555 40.0749 216.545 40.0496C216.534 40.0243 216.519 40.0013 216.5 39.9819C216.48 39.9625 216.458 39.9471 216.432 39.9366C216.407 39.9261 216.38 39.9207 216.353 39.9207H210.768C210.713 39.9207 210.66 39.8989 210.621 39.86C210.582 39.8211 210.561 39.7684 210.561 39.7134V36.8342C210.561 36.7046 210.654 36.6269 210.768 36.6269H216.244C216.271 36.6271 216.298 36.6218 216.324 36.6114C216.349 36.6009 216.372 36.5856 216.392 36.5662C216.411 36.5468 216.426 36.5237 216.437 36.4983C216.447 36.4729 216.453 36.4457 216.452 36.4183V34.9981C216.452 34.8686 216.359 34.7908 216.245 34.7908H210.752C210.725 34.791 210.698 34.7857 210.672 34.7753C210.647 34.7649 210.624 34.7495 210.605 34.7301C210.585 34.7107 210.57 34.6876 210.559 34.6622C210.549 34.6368 210.544 34.6096 210.544 34.5822V31.9531C210.544 31.9257 210.549 31.8985 210.559 31.8731C210.57 31.8477 210.585 31.8246 210.605 31.8052C210.624 31.7858 210.647 31.7704 210.672 31.76C210.698 31.7496 210.725 31.743 210.752 31.7432ZM206.347 39.1225L204.993 38.4202C204.906 38.3749 204.796 38.4073 204.743 38.4915C204.17 39.3895 203.114 40.0568 201.967 40.0568C199.713 40.0568 198.041 38.2492 198.041 35.7872C198.041 33.289 199.726 31.5177 201.967 31.5177C203.114 31.5177 204.17 32.1682 204.743 33.0791C204.795 33.1646 204.907 33.2087 204.995 33.1491L206.339 32.417C206.443 32.3613 206.478 32.233 206.414 32.1345C205.564 30.796 204.157 29.6752 201.967 29.6752C198.605 29.6752 196.007 32.1371 196.007 35.7872C196.007 39.4193 198.618 41.8993 201.967 41.8993C204.154 41.8993 205.546 40.75 206.425 39.4115C206.44 39.3883 206.451 39.3619 206.456 39.3342C206.46 39.3065 206.459 39.2781 206.451 39.251C206.444 39.2239 206.431 39.1988 206.413 39.1773C206.395 39.1558 206.372 39.1384 206.347 39.1264V39.1225ZM171.085 29.9188H168.494C168.438 29.9179 168.382 29.9346 168.336 29.9664C168.29 29.9981 168.254 30.0435 168.235 30.0963L165.102 38.2051L161.953 30.0963C161.91 29.99 161.808 29.9188 161.694 29.9188H159.102C159.024 29.9188 158.964 29.981 158.964 30.0574V41.5961C158.964 41.6739 159.026 41.7348 159.102 41.7348H160.896C160.973 41.7348 161.034 41.6726 161.034 41.5961V32.6113L164.623 41.6713C164.639 41.7102 164.675 41.7335 164.714 41.7335H165.463C165.502 41.7335 165.541 41.7076 165.554 41.6713L169.139 32.61V41.5948C169.139 41.6726 169.201 41.7335 169.278 41.7335H171.07C171.148 41.7335 171.208 41.6713 171.208 41.5948V30.0561C171.208 29.9784 171.146 29.9175 171.07 29.9175L171.085 29.9188Z" fill="#34313F"></path></svg> 