<?xml version="1.0" encoding="UTF-8"?> <svg xmlns="http://www.w3.org/2000/svg" width="288" height="60" viewBox="0 0 288 60" fill="none"><mask id="mask0_328_1034" style="mask-type:luminance" maskUnits="userSpaceOnUse" x="87" y="22" width="115" height="16"><path d="M201.286 22H87V38H201.286V22Z" fill="white"></path></mask><g mask="url(#mask0_328_1034)"><path d="M190.653 32.6839V22.0527H185.338V37.9995H195.969V32.6839H190.653Z" fill="#023F33"></path><path d="M181.351 22.0527H170.72V27.3683H181.351V22.0527Z" fill="#023F33"></path><path d="M181.351 32.6841H170.72V37.9997H181.351V32.6841Z" fill="#023F33"></path><path d="M168.064 32.6853C169.532 32.6853 170.722 31.4951 170.722 30.0274C170.722 28.5597 169.532 27.3696 168.064 27.3696C166.596 27.3696 165.406 28.5597 165.406 30.0274C165.406 31.4951 166.596 32.6853 168.064 32.6853Z" fill="#023F33"></path><path d="M198.628 37.9997C200.096 37.9997 201.286 36.8096 201.286 35.3419C201.286 33.8742 200.096 32.6841 198.628 32.6841C197.161 32.6841 195.971 33.8742 195.971 35.3419C195.971 36.8096 197.161 37.9997 198.628 37.9997Z" fill="#023F33"></path><path d="M102.948 22.0527H97.6323V27.3683H102.948V22.0527Z" fill="#023F33"></path><path d="M92.3156 22.0527H87V37.9995H92.3156V22.0527Z" fill="#023F33"></path><path d="M94.9723 32.6853C96.44 32.6853 97.6301 31.4951 97.6301 30.0274C97.6301 28.5597 96.44 27.3696 94.9723 27.3696C93.5046 27.3696 92.3145 28.5597 92.3145 30.0274C92.3145 31.4951 93.5046 32.6853 94.9723 32.6853Z" fill="#023F33"></path><path d="M112.248 22.0527H106.932V32.6839H112.248V22.0527Z" fill="#023F33"></path><path d="M122.88 22.0527H117.564V37.9995H122.88V22.0527Z" fill="#023F33"></path><path d="M114.908 37.9997C116.376 37.9997 117.566 36.8096 117.566 35.3419C117.566 33.8742 116.376 32.6841 114.908 32.6841C113.44 32.6841 112.25 33.8742 112.25 35.3419C112.25 36.8096 113.44 37.9997 114.908 37.9997Z" fill="#023F33"></path><path d="M142.814 27.3696H137.498V38.0009H142.814V27.3696Z" fill="#023F33"></path><path d="M132.183 22.0527H126.868V37.9995H132.183V22.0527Z" fill="#023F33"></path><path d="M134.84 27.3683C136.308 27.3683 137.498 26.1782 137.498 24.7105C137.498 23.2428 136.308 22.0527 134.84 22.0527C133.372 22.0527 132.182 23.2428 132.182 24.7105C132.182 26.1782 133.372 27.3683 134.84 27.3683Z" fill="#023F33"></path><path d="M162.746 27.3696H157.43V38.0009H162.746V27.3696Z" fill="#023F33"></path><path d="M152.118 22.0527H146.802V37.9995H152.118V22.0527Z" fill="#023F33"></path><path d="M154.776 27.3683C156.243 27.3683 157.433 26.1782 157.433 24.7105C157.433 23.2428 156.243 22.0527 154.776 22.0527C153.308 22.0527 152.118 23.2428 152.118 24.7105C152.118 26.1782 153.308 27.3683 154.776 27.3683Z" fill="#023F33"></path></g></svg> 