<?xml version="1.0" encoding="UTF-8"?> <svg xmlns="http://www.w3.org/2000/svg" width="141" height="60" viewBox="0 0 141 60" fill="none"><path d="M114.235 33.8663L116.851 35.6108C116.002 36.8617 113.971 39.0079 110.459 39.0079C106.099 39.0079 102.852 35.6338 102.852 31.3415C102.852 26.774 106.133 23.6753 110.092 23.6753C114.074 23.6753 116.025 26.8427 116.656 28.5527L117 29.425L106.742 33.6712C107.522 35.2091 108.738 35.9895 110.459 35.9895C112.181 35.9895 113.374 35.1402 114.235 33.8663ZM106.191 31.1007L113.041 28.2544C112.663 27.302 111.538 26.6249 110.195 26.6249C108.486 26.6249 106.111 28.1398 106.191 31.1007Z" fill="#FF302F"></path><path d="M97.9064 15.8569H101.211V38.3049H97.9064V15.8569Z" fill="#20B15A"></path><path d="M92.6965 24.2683H95.8865V37.9023C95.8865 43.5601 92.5473 45.8898 88.5998 45.8898C84.8821 45.8898 82.6446 43.388 81.8068 41.3568L84.7329 40.1401C85.2606 41.391 86.5344 42.8716 88.5998 42.8716C91.1357 42.8716 92.6965 41.2993 92.6965 38.3614V37.2597H92.5817C91.8243 38.1777 90.3785 39.004 88.5425 39.004C84.7098 39.004 81.1984 35.6643 81.1984 31.3608C81.1984 27.0341 84.7098 23.6602 88.5425 23.6602C90.367 23.6602 91.8243 24.475 92.5817 25.3701H92.6965V24.2683ZM92.9258 31.3608C92.9258 28.6523 91.1243 26.6783 88.8293 26.6783C86.5113 26.6783 84.5606 28.6523 84.5606 31.3608C84.5606 34.0347 86.5113 35.9742 88.8293 35.9742C91.1245 35.9858 92.926 34.0347 92.926 31.3608" fill="#3686F7"></path><path d="M63.0669 31.307C63.0669 35.7255 59.6245 38.9732 55.4017 38.9732C51.179 38.9732 47.7365 35.7141 47.7365 31.307C47.7365 26.8657 51.179 23.6294 55.4017 23.6294C59.6245 23.6294 63.0669 26.8657 63.0669 31.307ZM59.7162 31.307C59.7162 28.5528 57.7195 26.659 55.4017 26.659C53.0839 26.659 51.0871 28.5528 51.0871 31.307C51.0871 34.0384 53.0839 35.9551 55.4017 35.9551C57.7197 35.9551 59.7162 34.0384 59.7162 31.307Z" fill="#FF302F"></path><path d="M79.7944 31.3415C79.7944 35.76 76.3519 39.0077 72.1292 39.0077C67.9064 39.0077 64.464 35.7598 64.464 31.3415C64.464 26.9002 67.9064 23.6753 72.1292 23.6753C76.3519 23.6753 79.7944 26.8888 79.7944 31.3415ZM76.4322 31.3415C76.4322 28.5873 74.4356 26.6935 72.1176 26.6935C69.7996 26.6935 67.803 28.5873 67.803 31.3415C67.803 34.0728 69.7998 35.9895 72.1176 35.9895C74.447 35.9895 76.4322 34.0614 76.4322 31.3415Z" fill="#FFBA40"></path><path d="M35.129 35.6462C30.3209 35.6462 26.5573 31.7672 26.5573 26.9585C26.5573 22.15 30.3209 18.2709 35.129 18.2709C37.7223 18.2709 39.6156 19.2923 41.0155 20.6007L43.3221 18.294C41.3714 16.4233 38.7666 15 35.129 15C28.5425 15.0002 23 20.3713 23 26.9585C23 33.5457 28.5425 38.917 35.129 38.917C38.6863 38.917 41.3714 37.7464 43.4713 35.5659C45.6285 33.4083 46.294 30.3785 46.294 27.9226C46.294 27.1536 46.2023 26.3618 46.0989 25.7765H35.129V28.9669H42.9434C42.7138 30.964 42.0828 32.3296 41.1533 33.259C40.0287 34.3954 38.2503 35.6462 35.129 35.6462Z" fill="#3686F7"></path></svg> 