<?xml version="1.0" encoding="UTF-8"?> <svg xmlns="http://www.w3.org/2000/svg" width="108" height="52" viewBox="0 0 108 52" fill="none"><path d="M17.2159 26.3695V39.8666H53.6287H90.0415V26.3695V12.8724H53.6287H17.2159V26.3695ZM88.8246 26.3695V38.6513L53.6479 38.6385L18.4648 38.6193L18.4456 26.3503L18.4328 14.0878H53.6287H88.8246V26.3695Z" fill="black"></path><path d="M23.4929 19.4229V19.7683L23.7683 19.8131C23.9157 19.8323 24.1334 19.8707 24.2487 19.8899L24.4537 19.9219L24.4409 26.3634L24.4217 32.7985L23.9605 32.8497L23.4929 32.9072V33.2846V33.662H25.9268H28.3608V33.2846V32.9072L27.8996 32.8497L27.432 32.7985L27.4128 29.8688L27.4 26.9455H30.6025H33.8051V29.8496C33.8051 32.274 33.7923 32.7601 33.7154 32.7857C33.6642 32.8049 33.4208 32.8433 33.171 32.8689L32.7162 32.9136V33.2846V33.662H35.2142H37.7122V33.2846V32.9072L37.283 32.8625C37.0525 32.8369 36.8219 32.8049 36.7706 32.7857C36.7002 32.7601 36.6874 31.6087 36.6874 26.3378V19.9219L36.9436 19.8835C37.0845 19.8643 37.3151 19.8259 37.456 19.8067L37.7122 19.7683V19.4229V19.0775H35.2142H32.7162V19.4229V19.7683L33.0237 19.8067C33.1902 19.8323 33.4336 19.8643 33.5681 19.8835L33.8051 19.9219V22.6661V25.4103H30.6025H27.4V22.6661V19.9219L27.6754 19.8771C28.4312 19.7619 28.3608 19.8067 28.3608 19.4229V19.0775H25.9268H23.4929V19.4229Z" fill="black"></path><path d="M41.4856 19.2567C40.1534 19.9475 40.685 21.9561 42.1966 21.9561C42.6513 21.9561 43.0036 21.7898 43.2983 21.4508C43.7786 20.8879 43.7786 20.1458 43.2919 19.5829C42.8435 19.052 42.1197 18.9241 41.4856 19.2567Z" fill="black"></path><path d="M46.4872 19.3909V19.7044L46.9227 19.7555L47.3519 19.8131L47.3711 26.3506L47.3839 32.8816L47.211 32.92C47.1085 32.9392 46.9099 32.9712 46.7626 32.9904L46.4872 33.0352V33.3486V33.662H48.761H51.0348V33.3486V33.0352L50.7658 32.9904C50.6121 32.9712 50.4135 32.9392 50.3174 32.92L50.1381 32.8816V25.9796V19.0775H48.3126H46.4872V19.3909Z" fill="black"></path><path d="M55.2813 20.7021L53.9811 21.0923V22.1925V23.2991H52.9883H51.9955V23.7789V24.2586H52.9498H53.9106L53.9298 28.1415C53.9554 32.4657 53.9554 32.4209 54.3974 33.035C55.0699 33.9561 57.0811 34.0521 59.4766 33.2717L59.8737 33.1373V32.7855V32.4337L59.6816 32.4785C59.5727 32.5041 59.1179 32.5232 58.6696 32.5232C57.5038 32.5296 57.1324 32.3889 56.8505 31.8196L56.7032 31.519L56.684 27.8856L56.6648 24.2586H57.8882H59.1051V23.7789V23.2991H57.8882H56.6712V21.7959C56.6712 20.9707 56.652 20.2927 56.6264 20.2991C56.5943 20.3055 55.9922 20.4846 55.2813 20.7021Z" fill="black"></path><path d="M65.1259 23.0175C64.1651 23.1454 62.9674 23.6252 62.2948 24.1561C61.507 24.783 60.8729 25.7809 60.5783 26.8491C60.3797 27.5656 60.3285 29.1583 60.4758 30.0091C60.6872 31.1989 61.033 31.9345 61.7312 32.6382C62.5638 33.4761 63.7104 33.8855 65.4461 33.9559C67.278 34.0391 68.7768 33.5529 69.8656 32.5294C70.8968 31.5635 71.3772 30.4441 71.4477 28.8641C71.4925 27.8598 71.3964 27.0986 71.121 26.2926C70.8392 25.4546 70.5702 25.026 69.9617 24.4184C69.5454 23.9962 69.334 23.849 68.8408 23.5996C68.0018 23.1902 67.3548 23.0431 66.2468 23.0111C65.7536 22.9983 65.2476 23.0047 65.1259 23.0175ZM66.2788 23.8107C67.0282 23.9514 67.5406 24.38 67.9121 25.186C68.3156 26.0559 68.4565 26.9003 68.4565 28.5059C68.4565 31.7106 67.6751 33.1563 65.9265 33.1627C65.2924 33.1691 64.8312 32.99 64.4405 32.5806C63.6271 31.749 63.23 29.8172 63.3965 27.5528C63.563 25.2819 64.2484 24.0537 65.4653 23.8107C65.8432 23.7403 65.9009 23.7403 66.2788 23.8107Z" fill="black"></path><path d="M79.4218 23.1138C78.6212 23.2162 77.6348 23.6576 76.7958 24.2908C76.5396 24.4827 76.2962 24.6426 76.2641 24.6426C76.2321 24.6426 76.2065 24.342 76.2065 23.971V23.2993H74.381H72.5556V23.6448V23.9902L72.863 24.0286C73.0296 24.0541 73.2409 24.0861 73.3434 24.1053L73.5164 24.1437V28.5127V32.8816L73.1513 32.92C72.5556 32.9904 72.5556 32.9904 72.5556 33.3486V33.662H74.8614H77.1673V33.3422C77.1673 33.1631 77.148 33.0224 77.1224 33.016C77.0904 33.0096 76.8854 32.9776 76.6549 32.9328L76.2385 32.8625V29.1523V25.4422L76.5588 25.2311C76.7381 25.116 77.1096 24.9305 77.3914 24.8218C77.8334 24.6426 77.9807 24.6171 78.4803 24.6107C79.1144 24.6107 79.409 24.7194 79.7421 25.0712C80.2481 25.6022 80.3186 26.1971 80.2929 29.9519L80.2737 32.8625L79.8574 32.9328C79.6268 32.9776 79.4218 33.0096 79.3962 33.016C79.3642 33.0224 79.345 33.1631 79.345 33.3422V33.662H81.6508H83.9566V33.3486C83.9566 32.9904 83.9566 32.9904 83.3674 32.9264L83.0023 32.8816L82.9831 29.1587C82.9638 25.4742 82.9574 25.4358 82.8101 24.9945C82.6116 24.3868 82.4194 24.0733 82.0351 23.7279C81.6572 23.3889 81.1768 23.1906 80.5363 23.1074C80.0239 23.0371 79.9791 23.0371 79.4218 23.1138Z" fill="black"></path><path d="M39.8901 23.6128V23.9262L40.1975 23.9646C40.3641 23.9902 40.5754 24.0222 40.6779 24.0414L40.8508 24.0797L40.838 28.4679L40.8188 32.8625L40.4025 32.9328C40.1719 32.9776 39.9669 33.0096 39.9413 33.016C39.9093 33.0224 39.8901 33.1631 39.8901 33.3422V33.662H42.2023H44.5081L44.4889 33.3678C44.4633 33.016 44.4185 32.9776 43.9125 32.9264L43.541 32.888V28.0905V23.2993H41.7155H39.8901V23.6128Z" fill="black"></path></svg> 