<?xml version="1.0" encoding="UTF-8"?> <svg xmlns="http://www.w3.org/2000/svg" width="56" height="56" viewBox="0 0 56 56" fill="none"><g clip-path="url(#clip0_848_4622)"><path d="M47.7995 8.20137C47.463 7.8649 47.1196 7.53798 46.7697 7.22146C46.4918 6.96954 46.2091 6.72326 45.9225 6.48479C40.8998 2.28632 34.6253 0 28.0004 0C21.3756 0 15.0994 2.28632 10.0775 6.48609C9.79092 6.72456 9.50821 6.97084 9.23028 7.22276C8.88037 7.53928 8.53697 7.86621 8.20137 8.20137C2.91243 13.4899 0 20.521 0 28.0004C0 35.4799 2.75287 42.1199 7.76605 47.3542C7.90913 47.5042 8.05438 47.6521 8.20181 47.7995C8.30934 47.907 8.4173 48.0128 8.5257 48.1177C13.7756 53.2051 20.6732 56 28.0009 56C35.3286 56 42.2252 53.2051 47.476 48.1177C47.5849 48.0128 47.6924 47.907 47.7999 47.7995C47.9469 47.6525 48.0922 47.5042 48.2344 47.3542C53.2476 42.1199 56.0004 35.2722 56.0004 28.0004C56.0004 20.7287 53.088 13.4894 47.7999 8.20137H47.7995ZM44.8706 7.00726C43.115 7.83585 41.1747 8.53784 39.09 9.0898C38.9928 8.89859 38.894 8.70911 38.7938 8.52266C36.971 5.13068 34.7506 2.71038 32.3151 1.40267C37.0157 2.16232 41.3138 4.14383 44.8702 7.00726H44.8706ZM28.5285 1.31031H28.5294C32.0467 1.55659 35.3567 4.2661 37.9019 9.00221C37.9626 9.11451 38.022 9.22812 38.0819 9.34258C35.1235 10.0407 31.9023 10.4417 28.5294 10.4799H28.5285V1.31031ZM23.6845 1.40397C21.249 2.71081 19.029 5.13068 17.2071 8.52266C17.1069 8.70911 17.008 8.89859 16.9109 9.0898C14.8262 8.53871 12.8863 7.83716 11.1303 7.00813C14.687 4.14383 18.9839 2.16318 23.6845 1.40353V1.40397ZM27.4706 1.31031V10.4799C24.0977 10.4413 20.8765 10.0407 17.919 9.34258C17.9784 9.22812 18.0382 9.11451 18.099 9.00221C20.6428 4.2661 23.9524 1.55659 27.4706 1.31031ZM9.48523 47.5563C11.3939 46.494 13.5744 45.5947 15.9609 44.8966C16.3438 45.8119 16.7592 46.6886 17.2071 47.5224C19.0004 50.8606 21.1787 53.2567 23.5683 54.5778C18.1649 53.6799 13.2987 51.1685 9.48523 47.5563ZM27.4706 54.7348C23.9524 54.4876 20.6433 51.7781 18.099 47.0429C17.6853 46.2737 17.2998 45.465 16.9443 44.623C20.1641 43.774 23.7239 43.2836 27.4706 43.2412V54.7348ZM28.5285 54.7348V43.2412H28.5294C32.2765 43.2836 35.8367 43.7736 39.0557 44.623C38.7002 45.4655 38.3156 46.2737 37.9019 47.0429C35.3567 51.779 32.0463 54.4885 28.5294 54.7348H28.5285ZM32.4322 54.5778C34.8213 53.2567 37 50.8606 38.7942 47.5224C39.2421 46.6886 39.6575 45.8119 40.0404 44.8966C42.426 45.5947 44.6065 46.4935 46.5152 47.5563C42.7018 51.1685 37.836 53.6799 32.4322 54.5778ZM47.2926 46.7901C45.2378 45.6133 42.9264 44.6469 40.4345 43.9084C40.7779 43.0074 41.0892 42.0722 41.3689 41.1088H40.3131C40.0534 41.9768 39.7668 42.8193 39.4546 43.6327C36.0596 42.723 32.358 42.2261 28.5294 42.1836H28.5285V41.1088H27.471V42.1836C23.6424 42.2261 19.9417 42.723 16.5458 43.6327C16.2332 42.8193 15.947 41.9768 15.6873 41.1088H14.6324C14.9121 42.0722 15.2238 43.0079 15.5668 43.9084C13.0745 44.6469 10.763 45.6133 8.70867 46.7892C3.9769 41.9317 1.05753 35.2999 1.05753 28.0004C1.05753 19.9382 4.61774 12.6916 10.2484 7.75044C12.1475 8.68786 14.2279 9.46182 16.4396 10.0597C15.9839 11.0453 15.5685 12.0807 15.1965 13.1595H16.2683C16.6213 12.17 17.0115 11.2213 17.4373 10.3164C20.586 11.0808 23.9745 11.4993 27.4706 11.5374V13.1595H28.5281V11.5374H28.529C32.025 11.4988 35.4144 11.0808 38.5623 10.3164C38.9881 11.2213 39.3787 12.17 39.7317 13.1595H40.8039C40.4319 12.0807 40.0174 11.0453 39.5608 10.0597C41.773 9.46182 43.8538 8.68656 45.7529 7.74914C51.3836 12.6912 54.9429 19.9378 54.9429 28C54.9429 35.2995 52.024 41.9321 47.2935 46.7892L47.2926 46.7901Z" fill="#666666"></path><path d="M15.1358 14.1906V30.2022H10.2206V14.1906H15.1358Z" fill="#666666"></path><path d="M16.2736 25.5684L20.8367 24.7476C21.2195 26.0375 22.2051 26.6827 23.7929 26.6827C25.0282 26.6827 25.6461 26.354 25.6461 25.6971C25.6461 25.3529 25.5034 25.0853 25.2177 24.8937C24.9324 24.7021 24.422 24.5321 23.6867 24.3838C20.8787 23.8457 19.0763 23.1429 18.2789 22.2744C17.4815 21.4063 17.0831 20.3852 17.0831 19.2119C17.0831 17.7022 17.6558 16.4465 18.8018 15.4453C19.9474 14.4442 21.5955 13.9434 23.7461 13.9434C27.0071 13.9434 29.1612 15.2532 30.2096 17.8726L26.1391 19.1044C25.7167 18.033 24.8604 17.4971 23.57 17.4971C22.4986 17.4971 21.9631 17.8296 21.9631 18.4943C21.9631 18.7918 22.0841 19.0224 22.3269 19.1863C22.5693 19.3511 23.0384 19.5072 23.7348 19.6551C25.6508 20.06 27.0119 20.4186 27.8175 20.7304C28.6231 21.0421 29.2956 21.5754 29.8345 22.3303C30.3739 23.0852 30.6436 23.9758 30.6436 25.0008C30.6436 26.6207 29.9867 27.9332 28.673 28.9387C27.3592 29.9442 25.6348 30.4467 23.4998 30.4467C19.5975 30.4467 17.1889 28.8203 16.274 25.5671L16.2736 25.5684Z" fill="#666666"></path><path d="M39.4407 30.4485C37.1887 30.4485 35.3528 29.7019 33.9337 28.2082C32.5141 26.7145 31.8043 24.7165 31.8043 22.2142C31.8043 19.712 32.4829 17.8445 33.8396 16.2844C35.1963 14.7239 37.079 13.9443 39.4876 13.9443C41.7162 13.9443 43.5325 14.6793 44.9365 16.1496C46.34 17.6199 47.042 19.5823 47.042 22.0382C47.042 24.494 46.334 26.6169 44.9187 28.1492C43.503 29.6824 41.6772 30.4485 39.4407 30.4485ZM39.4173 26.8124C40.2459 26.8124 40.8425 26.4504 41.2063 25.7272C41.5697 25.0044 41.7518 23.6802 41.7518 21.7568C41.7518 18.9727 41.0047 17.5809 39.5114 17.5809C37.9002 17.5809 37.095 19.1687 37.095 22.3434C37.095 25.3231 37.8694 26.8129 39.4177 26.8129L39.4173 26.8124Z" fill="#666666"></path><path d="M44.3623 37.9406H46.3691V39.8452H39.8116V37.9406H41.9208V33.9013C40.847 34.3615 40.6936 34.3998 40.0417 34.5149V32.5975C41.2177 32.3546 42.1381 31.8305 42.5088 31.1914H44.3623V37.9406Z" fill="#666666"></path><path d="M35.3772 31.1914C36.3614 31.1914 37.1028 31.511 37.6653 32.1884C38.3811 33.0577 38.7262 34.1825 38.7262 35.6653C38.7262 38.273 37.384 39.9731 35.3388 39.9731C34.3673 39.9731 33.562 39.5896 32.9613 38.8482C32.3093 38.0173 32.0026 36.9947 32.0026 35.5631C32.0026 34.0803 32.3477 32.9938 33.0763 32.1884C33.7027 31.511 34.4313 31.1914 35.3772 31.1914ZM35.3772 32.981C34.7636 32.981 34.4952 33.7479 34.4952 35.4736C34.4952 37.4804 34.7125 38.1707 35.3772 38.1707C36.0035 38.1707 36.2592 37.4293 36.2592 35.6014C36.2592 33.7351 36.0035 32.981 35.3772 32.981Z" fill="#666666"></path><path d="M31.1217 31.3192V32.917C30.5848 33.5306 29.9457 34.681 29.575 35.7036C29.102 36.9819 28.8591 38.209 28.8591 39.3083C28.8591 39.4106 28.8719 39.6023 28.8847 39.8452H26.0597C26.0725 37.7744 27.1846 35.1284 28.7697 33.4539H24.8198L24.9988 31.3192H31.1217Z" fill="#666666"></path><path d="M23.7473 31.3192V32.917C23.2104 33.5306 22.5713 34.681 22.2006 35.7036C21.7276 36.9819 21.4847 38.209 21.4847 39.3083C21.4847 39.4106 21.4975 39.6023 21.5103 39.8452H18.6853C18.6981 37.7744 19.8102 35.1284 21.3953 33.4539H17.4454L17.6244 31.3192H23.7473Z" fill="#666666"></path><path d="M16.4622 37.7617L16.3727 39.8452H9.87915V37.8895L11.3364 36.8797C11.8093 36.5473 12.8575 35.6653 13.3177 35.2179C13.7139 34.8345 13.9185 34.4254 13.9185 34.0036C13.9185 33.4667 13.5861 33.1088 13.0748 33.1088C12.4485 33.1088 12.1161 33.5945 12.0266 34.5788L9.87915 34.1698C10.0709 33.1216 10.3393 32.5591 10.9273 32.0351C11.5281 31.4854 12.3462 31.1914 13.2665 31.1914C15.1456 31.1914 16.4111 32.2907 16.4111 33.9141C16.4111 34.9239 16.002 35.6398 14.9027 36.5218C14.5959 36.7646 14.4937 36.8285 13.1515 37.7617H16.4622Z" fill="#666666"></path></g><defs><clipPath id="clip0_848_4622"><rect width="56" height="56" fill="white"></rect></clipPath></defs></svg> 