<?xml version="1.0" encoding="UTF-8"?> <svg xmlns="http://www.w3.org/2000/svg" width="108" height="52" viewBox="0 0 108 52" fill="none"><path d="M60.0153 18.8127C60.4594 18.8127 60.8892 18.6402 61.2043 18.3382C61.5195 18.0363 61.7057 17.6049 61.72 17.1736C61.72 16.7279 61.5338 16.2965 61.2187 15.9802C60.9035 15.6639 60.4737 15.477 60.0297 15.477C59.5856 15.4914 59.1702 15.6639 58.855 15.9946C58.5398 16.3109 58.3679 16.7423 58.3823 17.1736C58.3823 17.6049 58.5542 18.0219 58.8693 18.3382C59.1702 18.6258 59.5856 18.7983 60.0153 18.8127ZM71.5614 20.3943H75.6585V20.725C75.4292 20.7681 75.2144 20.84 75.0138 20.955C74.6414 21.1276 73.8965 21.9759 73.3091 23.3993C72.335 25.858 71.3179 28.7767 70.2435 32.1125L69.8424 33.3777C69.6705 33.9529 69.5129 34.3267 69.4413 34.5424C69.3697 34.7724 69.2694 35.1175 69.0975 35.5345C68.9972 35.8508 68.8683 36.1671 68.7107 36.4547C68.5102 36.8285 68.1377 37.5905 67.8369 37.8206C67.3642 38.2232 66.6622 38.6689 65.7884 38.597C64.0837 38.597 62.8088 37.3317 62.7944 35.8364C62.7944 34.8155 63.4391 34.1398 64.4132 34.1398C65.1151 34.1398 65.7311 34.5136 65.7311 35.3044C65.7311 35.8795 65.1581 36.469 65.1581 36.771C65.1581 37.5474 65.6022 37.9068 66.476 37.9068C67.1779 37.9068 67.7509 37.4611 68.1807 36.5697C68.7537 35.5488 68.811 34.4273 68.324 33.1764L64.7283 23.6869C63.8975 21.5014 63.2815 20.7825 62.5079 20.6962V20.3655H68.1807V20.6962C67.5074 20.7681 67.1636 21.1707 67.1636 21.8896C67.1636 22.4072 67.3642 23.2124 67.7366 24.2333L68.4099 26.0737C69.1835 28.0722 69.8138 29.812 70.1289 30.9047C70.8595 28.633 71.5328 26.6488 72.1774 24.909C72.6502 23.615 72.8794 22.6948 72.8794 22.1484C72.8794 21.1707 72.3493 20.725 71.5614 20.725V20.3943ZM32.1242 32.5151C31.3936 32.3856 30.7776 31.7386 30.7776 30.3727V13.8666L26.652 14.7581V15.1032C27.3539 15.0313 28.0558 15.6495 28.0558 16.9723V30.3727C28.0558 31.6667 27.3539 32.4144 26.652 32.5151C26.5803 32.5294 26.523 32.5294 26.4514 32.5438C26.0933 32.5726 25.7352 32.5007 25.4057 32.3569C24.847 32.1125 24.3886 31.6811 24.0018 31.0485L22.0966 28.0147C21.6955 27.3677 21.0938 26.8788 20.3919 26.6056C19.6899 26.3325 18.9164 26.2893 18.1858 26.4906L20.3346 24.1182C21.9533 22.321 23.4574 21.1851 24.8756 20.7106V20.3799H20.1483V20.7106C21.366 21.1851 21.2943 22.2347 19.8905 23.8738L16.8822 27.3821V13.8666L12.7565 14.7581V15.1032C13.4585 15.1032 14.1604 15.7933 14.1604 17.0154V30.3583C14.1604 31.8393 13.4728 32.4144 12.7565 32.5151V32.8457H18.2288V32.5151C17.3263 32.3856 16.8822 31.6955 16.8822 30.3727V27.9141L18.0569 26.62L20.8932 31.2785C21.5665 32.4 22.1968 32.8457 23.1853 32.8457H32.6972V32.5869C32.7115 32.5869 32.4393 32.5726 32.1242 32.5151ZM43.4697 30.9478V25.3691C43.4124 21.7315 41.8796 20.0636 38.37 20.0636C37.2526 20.0492 36.1639 20.4231 35.2757 21.1132C34.3446 21.8177 33.9005 22.6085 33.9005 23.5287C33.9005 24.4202 34.4019 25.0959 35.2184 25.0959C36.0923 25.0959 36.7226 24.5927 36.7226 23.9026C36.7226 23.3849 36.3788 22.6517 36.3788 22.1628C36.3788 21.2714 37.0521 20.4949 38.2267 20.4949C39.7309 20.4949 40.8053 21.6164 40.8053 24.1039V25.5992L39.559 25.9011C38.9143 26.0305 38.3556 26.1599 37.9402 26.275C37.5105 26.4044 36.9661 26.5769 36.3215 26.8213C35.0179 27.3246 34.3303 27.799 33.7286 28.6905C33.4278 29.1218 33.2845 29.6394 33.2845 30.157C33.2845 32.2275 34.7314 33.1764 36.7512 33.1764C38.3556 33.1764 40.046 32.3281 40.8196 30.7322C40.8339 31.2354 40.9485 31.7243 41.1777 32.1844C42.0229 33.8954 44.8306 32.8889 44.8306 32.8889V32.5582C43.57 32.7451 43.4697 31.2929 43.4697 30.9478ZM40.8053 29.2225C40.8053 30.042 40.5044 30.7178 39.9028 31.1923C39.3298 31.6667 38.7281 31.9112 38.0978 31.9112C36.8802 31.9112 36.0779 31.1204 36.0779 29.6394C36.0779 28.9493 36.4647 28.3023 36.7799 27.9284C37.0377 27.6696 37.3242 27.454 37.6537 27.3102C38.0835 27.0801 38.284 26.9651 38.5849 26.8357L39.7309 26.4187C40.3039 26.1887 40.6477 26.0737 40.8053 26.0018V29.2225ZM95.9859 20.3943H86.2734V13.8666H95.9859L93.9517 17.1305L95.9859 20.3943ZM76.2315 31.2498C75.0281 30.0133 74.3549 28.3454 74.3835 26.6056C74.3692 25.7573 74.5268 24.909 74.8419 24.1182C75.1571 23.3274 75.6298 22.6085 76.2315 21.9903C77.4634 20.6962 78.9532 20.0492 80.7152 20.0492C82.4343 20.0492 83.9384 20.6962 85.1704 21.9903C85.772 22.5942 86.2591 23.3131 86.5742 24.1039C86.9037 24.8947 87.0613 25.743 87.047 26.6056C87.0613 27.4683 86.9037 28.3166 86.5742 29.1074C86.2448 29.8982 85.772 30.6315 85.1704 31.2354C83.9384 32.5007 82.4486 33.1621 80.7152 33.1621C78.9676 33.1764 77.4634 32.5294 76.2315 31.2498ZM82.9643 22.2059C82.4772 21.2426 81.8183 20.6819 81.059 20.5237C79.5119 20.2074 78.151 21.8034 77.6353 24.3195C77.4204 25.4554 77.3631 26.6056 77.4778 27.7415C77.5924 28.8918 77.9075 29.9989 78.4232 31.0341C78.9246 31.9974 79.5692 32.5582 80.3285 32.7163C81.8756 33.0327 83.2794 31.3792 83.7952 28.8343C84.2249 26.7063 84.01 24.1182 82.9643 22.2059Z" fill="black"></path><path d="M61.4619 30.3721V20.3937H52.6662V20.6957C53.8409 20.8682 54.3996 21.7596 53.8696 23.1831C51.1191 30.6309 51.291 30.3002 51.1191 30.8897C50.9472 30.3146 50.5461 28.9056 49.9015 27.137C49.2568 25.3685 48.8271 24.2039 48.6552 23.6719C47.9819 21.6015 48.2111 20.8394 49.2998 20.71V20.3793H43.5984V20.71C44.4436 20.8826 45.2028 21.8603 45.8188 23.6L46.6926 25.8718C47.6524 28.316 48.7841 31.6949 49.1566 32.8452H51.0475C51.6635 31.0766 54.0988 24.0026 54.4282 23.2837C54.7864 22.4642 55.1875 21.8459 55.6316 21.4146C55.8464 21.1845 56.1043 20.9976 56.4051 20.8826C56.6916 20.7675 57.0068 20.6957 57.3219 20.71C57.3219 20.71 58.6971 20.71 58.6971 22.0328V30.3865C58.6971 31.7812 58.0239 32.4282 57.3219 32.5288V32.8595H62.7655V32.5288C62.0636 32.4138 61.4619 31.7668 61.4619 30.3721Z" fill="black"></path></svg> 