<?xml version="1.0" encoding="UTF-8"?> <svg xmlns="http://www.w3.org/2000/svg" width="141" height="60" viewBox="0 0 141 60" fill="none"><path d="M59.7908 32.0821L65.4743 39.0714H60.9863L55.9283 32.6524V39.0714H52.2496V20.6786H55.9283V31.4936L60.6001 26.1964H65.2902L59.7908 32.0821ZM45.0765 25.8286C44.271 25.8407 43.4805 26.0478 42.7727 26.4322C42.0648 26.8166 41.4606 27.3668 41.0118 28.0357V26.1964H37.5355V39.0714H41.2139V33.0569C41.1657 32.6204 41.2078 32.1786 41.3376 31.759C41.4674 31.3394 41.6822 30.9511 41.9686 30.6181C42.255 30.2851 42.6069 30.0146 43.0023 29.8235C43.3977 29.6323 43.8283 29.5246 44.2671 29.5071C46.4008 29.5071 46.7319 31.6039 46.7319 33.0569V39.0714H50.4105V32.2476C50.4105 28.2013 49.0677 25.8286 45.1501 25.8286H45.0765ZM77.9996 32.9282C78.0137 33.1979 78.0137 33.4677 77.9996 33.7375H68.3434V33.8662C68.5001 34.6332 68.9251 35.3193 69.5419 35.8013C70.1588 36.2833 70.9273 36.5297 71.7094 36.4964C72.3299 36.5233 72.9494 36.4249 73.5309 36.2068C74.1124 35.9888 74.6439 35.6556 75.0937 35.2274L77.54 37.0667C76.7647 37.8579 75.8321 38.4779 74.8025 38.8866C73.7729 39.2952 72.669 39.4835 71.5621 39.4393C70.6455 39.4972 69.7271 39.3577 68.869 39.0303C68.0108 38.7028 67.233 38.1951 66.5879 37.5413C65.9428 36.8874 65.4455 36.1028 65.1297 35.2404C64.8138 34.3779 64.6867 33.4577 64.7569 32.5419C64.738 31.6379 64.9056 30.7396 65.2491 29.9032C65.5926 29.0667 66.1048 28.31 66.7536 27.6801C67.4024 27.0503 68.1741 26.5608 69.0203 26.2423C69.8666 25.9237 70.7695 25.7829 71.6726 25.8286C75.1305 25.8286 77.9996 28.2749 77.9996 32.9282ZM74.5787 31.3464C74.5652 30.9821 74.4776 30.6243 74.3213 30.295C74.165 29.9656 73.9433 29.6715 73.6697 29.4306C73.3961 29.1897 73.0763 29.007 72.7298 28.8936C72.3833 28.7803 72.0174 28.7387 71.6543 28.7714C70.0368 28.5966 68.5721 29.7358 68.3434 31.3464H74.5787ZM22.8212 20.6786H19.1426V39.0714H30.1783V35.3931H22.8212V20.6786ZM89.0355 20.6786H92.7139V39.0714H89.2377V37.7839C88.7963 38.3277 88.2337 38.7607 87.5949 39.0481C86.9562 39.3356 86.2591 39.4696 85.5593 39.4393C84.7043 39.4174 83.8629 39.2208 83.0867 38.8617C82.3105 38.5026 81.616 37.9886 81.0458 37.3512C80.4756 36.7138 80.0417 35.9665 79.771 35.1552C79.5002 34.344 79.3982 33.486 79.4712 32.6339C79.3844 31.7806 79.4761 30.9185 79.7406 30.1026C80.005 29.2867 80.4364 28.5347 81.0073 27.8946C81.5783 27.2545 82.2762 26.7403 83.0566 26.3846C83.8371 26.0289 84.6831 25.8395 85.5408 25.8286C86.1796 25.8006 86.8176 25.9 87.4176 26.121C88.0176 26.3421 88.5676 26.6804 89.0355 27.1161V20.6786ZM89.3113 32.6339C89.3692 32.2092 89.3353 31.777 89.2119 31.3665C89.0885 30.956 88.8786 30.5767 88.5962 30.2542C88.3138 29.9317 87.9656 29.6736 87.575 29.4971C87.1843 29.3206 86.7604 29.23 86.3318 29.2312C84.5721 29.359 83.2388 30.8722 83.3337 32.6339C83.2388 34.3955 84.5721 35.9089 86.3318 36.0367C86.7604 36.038 87.1844 35.9473 87.575 35.7708C87.9657 35.5944 88.3139 35.3362 88.5963 35.0137C88.8787 34.6912 89.0886 34.3119 89.212 33.9013C89.3353 33.4908 89.3692 33.0586 89.3113 32.6339ZM33.8569 20.3107C33.2653 20.319 32.699 20.5515 32.2722 20.9613C31.8455 21.371 31.5901 21.9274 31.5577 22.5181C31.5577 23.7877 32.5871 24.8171 33.8569 24.8171C35.1267 24.8171 36.1557 23.7875 36.1557 22.5181C36.1232 21.9275 35.8679 21.3712 35.4412 20.9615C35.0144 20.5518 34.4482 20.3193 33.8567 20.3109M32.0176 39.0714H35.6962V26.1964H32.0176V39.0714ZM122.143 18.8393V40.9107C122.143 41.3985 121.949 41.8663 121.604 42.2113C121.259 42.5562 120.791 42.75 120.303 42.75H98.2319C97.7441 42.75 97.2762 42.5562 96.9313 42.2113C96.5864 41.8663 96.3926 41.3985 96.3926 40.9107V18.8393C96.3926 18.3515 96.5864 17.8837 96.9313 17.5387C97.2762 17.1938 97.7441 17 98.2319 17H120.303C120.791 17 121.259 17.1938 121.604 17.5387C121.949 17.8837 122.143 18.3515 122.143 18.8393ZM103.75 26.1964H100.071V39.0714H103.75V26.1964ZM104.21 22.5179C104.21 21.2481 103.18 20.2188 101.911 20.2188C100.641 20.2188 99.6113 21.2481 99.6113 22.5179C99.6113 23.7875 100.641 24.8169 101.911 24.8169C103.18 24.8169 104.21 23.7875 104.21 22.5179ZM118.464 32.2476C118.464 28.2013 117.121 25.8286 113.204 25.8286C112.386 25.8288 111.58 26.0301 110.859 26.415C110.137 26.7999 109.521 27.3565 109.065 28.0357V26.1964H105.589V39.0714H109.268V33.0569C109.219 32.6204 109.261 32.1786 109.391 31.759C109.521 31.3394 109.736 30.9511 110.022 30.6181C110.309 30.2851 110.661 30.0146 111.056 29.8235C111.451 29.6323 111.882 29.5246 112.321 29.5071C114.454 29.5071 114.786 31.6039 114.786 33.0569V39.0714H118.464V32.2476Z" fill="#0A66C2"></path></svg> 