<?xml version="1.0" encoding="UTF-8"?> <svg xmlns="http://www.w3.org/2000/svg" width="141" height="60" viewBox="0 0 141 60" fill="none"><path d="M23.1676 33.4198C23.1676 34.5895 23.4245 35.4877 23.76 36.031C24.1999 36.7427 24.8562 37.0443 25.5256 37.0443C26.3884 37.0443 27.1779 36.8301 28.6993 34.7259C29.9182 33.0392 31.3545 30.6721 32.3207 29.188L33.9571 26.6737C35.094 24.9275 36.4098 22.9864 37.9183 21.6706C39.1502 20.5965 40.4788 20 41.8159 20C44.0609 20 46.1993 21.3008 47.8356 23.7405C49.6267 26.4127 50.496 29.7782 50.496 33.2515C50.496 35.3163 50.0891 36.8332 49.3964 38.0318C48.7273 39.1909 47.4233 40.3491 45.2295 40.3491V37.0443C47.1079 37.0443 47.5766 35.3182 47.5766 33.343C47.5766 30.5282 46.9203 27.4045 45.4745 25.1725C44.4487 23.5892 43.1191 22.6219 41.6562 22.6219C40.074 22.6219 38.8009 23.8153 37.3699 25.9428C36.6092 27.0731 35.8282 28.4506 34.9513 30.0051L33.9861 31.7152C32.0469 35.1531 31.5557 35.9363 30.5863 37.2286C28.8871 39.4914 27.4359 40.3493 25.5256 40.3493C23.2593 40.3493 21.8264 39.3679 20.939 37.8892C20.2141 36.6841 19.8584 35.103 19.8584 33.3016L23.1676 33.4198Z" fill="#0081FB"></path><path d="M22.4697 23.9739C23.9867 21.6353 26.1764 20 28.6875 20C30.1418 20 31.5876 20.4304 33.0973 21.6629C34.7486 23.0109 36.5089 25.2301 38.7047 28.8876L39.4918 30.2002C41.3927 33.3665 42.4741 34.9955 43.1069 35.7637C43.9209 36.7502 44.491 37.0443 45.2315 37.0443C47.1098 37.0443 47.5785 35.3182 47.5785 33.343L50.4979 33.2515C50.4979 35.3163 50.0909 36.8332 49.3983 38.0318C48.7291 39.1909 47.4252 40.3491 45.2313 40.3491C43.8676 40.3491 42.6595 40.053 41.3234 38.7927C40.2964 37.8253 39.0957 36.1067 38.1718 34.5619L35.4243 29.9722C34.0453 27.6687 32.7808 25.9513 32.049 25.1735C31.2615 24.3371 30.2495 23.3271 28.6342 23.3271C27.3269 23.3271 26.2167 24.2446 25.2877 25.6477L22.4697 23.9739Z" fill="url(#paint0_linear_328_962)"></path><path d="M28.6322 23.3273C27.3249 23.3273 26.2146 24.2446 25.2857 25.6477C23.9719 27.6302 23.1676 30.5837 23.1676 33.4198C23.1676 34.5895 23.4245 35.4877 23.76 36.031L20.9386 37.8892C20.2143 36.6841 19.8584 35.103 19.8584 33.3016C19.8584 30.0254 20.7576 26.6108 22.4677 23.9739C23.9847 21.6353 26.1744 20 28.6854 20L28.6322 23.3273Z" fill="url(#paint1_linear_328_962)"></path><path d="M56.9268 20.6436H60.7548L67.2635 32.4183L73.7734 20.6436H77.5182V39.9913H74.3954V25.1629L68.6868 35.4313H65.7572L60.0497 25.1629V39.9913H56.927L56.9268 20.6436ZM87.303 27.8575C85.0636 27.8575 83.7147 29.5428 83.3919 31.63H90.9927C90.8361 29.4799 89.5959 27.8575 87.303 27.8575ZM80.296 32.8188C80.296 28.4272 83.1341 25.231 87.3574 25.231C91.5116 25.231 93.9916 28.3866 93.9916 33.0531V33.9108H83.3919C83.7679 36.1811 85.2745 37.7111 87.7037 37.7111C89.6416 37.7111 90.8531 37.1197 92.0016 36.0383L93.6606 38.0702C92.0975 39.5072 90.1094 40.3361 87.5928 40.3361C83.0211 40.3361 80.2958 37.0026 80.2958 32.8188M97.7782 28.1341H94.9038V25.5774H97.7784V21.3488H100.791V25.5774H105.159V28.1343H100.791V34.6155C100.791 36.8282 101.499 37.6145 103.237 37.6145C104.031 37.6145 104.486 37.5462 105.159 37.4344V39.9637C104.321 40.2002 103.522 40.3089 102.657 40.3089C99.4041 40.3089 97.7784 38.5318 97.7784 34.9745L97.7782 28.1341ZM117.845 30.6208C117.24 29.093 115.89 27.968 113.906 27.968C111.328 27.968 109.678 29.7973 109.678 32.7773C109.678 35.6825 111.197 37.6003 113.783 37.6003C115.816 37.6003 117.267 36.4177 117.845 34.9463V30.6208ZM120.858 39.9909H117.901V37.9733C117.074 39.1612 115.57 40.3365 113.133 40.3365C109.214 40.3365 106.595 37.056 106.595 32.7773C106.595 28.4582 109.277 25.2312 113.299 25.2312C115.287 25.2312 116.847 26.0261 117.901 27.4291V25.5774H120.859L120.858 39.9909Z" fill="#192830"></path><defs><linearGradient id="paint0_linear_328_962" x1="411.444" y1="1158.21" x2="2518.47" y2="1264.63" gradientUnits="userSpaceOnUse"><stop stop-color="#0064E1"></stop><stop offset="0.4" stop-color="#0064E1"></stop><stop offset="0.83" stop-color="#0073EE"></stop><stop offset="1" stop-color="#0082FB"></stop></linearGradient><linearGradient id="paint1_linear_328_962" x1="499.3" y1="1500.9" x2="499.3" y2="723.171" gradientUnits="userSpaceOnUse"><stop stop-color="#0082FB"></stop><stop offset="1" stop-color="#0064E0"></stop></linearGradient></defs></svg> 