<?xml version="1.0" encoding="UTF-8"?> <svg xmlns="http://www.w3.org/2000/svg" width="108" height="52" viewBox="0 0 108 52" fill="none"><path d="M45.124 19.1926V32.5689H42.8128V22.0722H42.782L38.6525 32.5689H37.1117L32.8898 22.0722H32.859V32.5689H30.7327V19.1926H34.0609L37.8821 29.101H37.9437L41.9807 19.1926H45.124ZM47.0346 20.2144C47.0346 19.8428 47.1579 19.5332 47.4353 19.2855C47.7126 19.0377 48.0208 18.9139 48.3906 18.9139C48.7912 18.9139 49.1302 19.0377 49.3767 19.2855C49.6232 19.5332 49.7773 19.8428 49.7773 20.2144C49.7773 20.5859 49.6541 20.8956 49.3767 21.1433C49.0994 21.391 48.7912 21.5148 48.3906 21.5148C47.99 21.5148 47.6818 21.391 47.4353 21.1433C47.1887 20.8646 47.0346 20.555 47.0346 20.2144ZM49.5308 22.9701V32.5689H47.2812V22.9701H49.5308ZM56.3413 30.9278C56.6802 30.9278 57.05 30.8659 57.4506 30.6801C57.8513 30.5253 58.2211 30.3086 58.56 30.0609V32.1664C58.1902 32.3831 57.7896 32.538 57.3274 32.6309C56.8651 32.7237 56.3721 32.7857 55.8174 32.7857C54.3998 32.7857 53.2596 32.3522 52.3967 31.4542C51.503 30.5563 51.0716 29.4106 51.0716 28.0482C51.0716 26.5 51.5339 25.2305 52.4275 24.2397C53.3212 23.2488 54.5847 22.7534 56.2488 22.7534C56.6802 22.7534 57.1117 22.8153 57.5123 22.9082C57.9437 23.0011 58.2827 23.1559 58.5292 23.2798V25.4473C58.1902 25.1995 57.8204 24.9828 57.4815 24.8589C57.1117 24.7351 56.7419 24.6422 56.3721 24.6422C55.4784 24.6422 54.7696 24.9209 54.2149 25.5092C53.6602 26.0975 53.4137 26.8716 53.4137 27.8624C53.4137 28.8223 53.691 29.5964 54.2149 30.1228C54.7388 30.6492 55.4476 30.9278 56.3413 30.9278ZM64.9391 22.8153C65.124 22.8153 65.2781 22.8153 65.4321 22.8463C65.5862 22.8773 65.7095 22.9082 65.8019 22.9392V25.2305C65.6787 25.1376 65.5246 25.0447 65.2781 24.9828C65.0315 24.9209 64.785 24.8589 64.446 24.8589C63.8913 24.8589 63.4291 25.1066 63.0593 25.5711C62.6895 26.0356 62.4738 26.7477 62.4738 27.7386V32.5689H60.2241V22.9701H62.4738V24.4874H62.5046C62.7203 23.961 63.0285 23.5585 63.4291 23.2488C63.8605 22.9701 64.3536 22.8153 64.9391 22.8153ZM65.9252 27.9244C65.9252 26.3452 66.3875 25.0757 67.2503 24.1468C68.144 23.2179 69.3767 22.7534 70.9483 22.7534C72.4275 22.7534 73.5985 23.1869 74.4306 24.0848C75.2626 24.9828 75.6941 26.1904 75.6941 27.7076C75.6941 29.2558 75.2318 30.4944 74.369 31.4233C73.4753 32.3522 72.2734 32.8166 70.7326 32.8166C69.2534 32.8166 68.0824 32.3831 67.2195 31.5162C66.3566 30.6182 65.9252 29.4106 65.9252 27.9244ZM68.2673 27.8315C68.2673 28.8223 68.483 29.5964 68.9452 30.1228C69.4075 30.6492 70.0546 30.9278 70.8867 30.9278C71.6879 30.9278 72.3351 30.6801 72.7665 30.1228C73.1979 29.5964 73.4136 28.8223 73.4136 27.7695C73.4136 26.7477 73.1979 25.9736 72.7665 25.4163C72.3351 24.8899 71.6879 24.6112 70.9175 24.6112C70.0855 24.6112 69.4691 24.8899 69.0069 25.4473C68.483 26.0356 68.2673 26.8097 68.2673 27.8315ZM79.0531 25.5092C79.0531 25.8188 79.1455 26.0975 79.3612 26.2833C79.577 26.4691 80.0084 26.6858 80.7172 26.9645C81.6109 27.336 82.258 27.7386 82.597 28.1721C82.9668 28.6365 83.1517 29.1629 83.1517 29.8131C83.1517 30.7111 82.8127 31.4233 82.1039 31.9806C81.426 32.538 80.4706 32.7857 79.2996 32.7857C78.899 32.7857 78.4676 32.7237 77.9745 32.6309C77.4814 32.538 77.0808 32.4141 76.7418 32.2593V30.0299C77.1424 30.3086 77.6047 30.5563 78.0669 30.7111C78.5292 30.8659 78.9606 30.9588 79.3612 30.9588C79.8543 30.9588 80.2549 30.8969 80.4706 30.7421C80.7172 30.5872 80.8404 30.3705 80.8404 30.0299C80.8404 29.7203 80.7172 29.4725 80.4706 29.2248C80.2241 29.0081 79.731 28.7604 79.0531 28.4817C78.221 28.1411 77.6355 27.7386 77.2965 27.3051C76.9576 26.8716 76.7727 26.3142 76.7727 25.633C76.7727 24.766 77.1116 24.0539 77.7896 23.4965C78.4676 22.9392 79.3612 22.6605 80.4398 22.6605C80.7788 22.6605 81.1486 22.6915 81.5492 22.7844C81.9498 22.8773 82.3196 22.9701 82.597 23.063V25.2615C82.2888 25.0757 81.9498 24.8899 81.5492 24.7351C81.1486 24.5803 80.748 24.5183 80.3782 24.5183C79.9468 24.5183 79.6078 24.6112 79.3921 24.766C79.1763 24.9828 79.0531 25.1995 79.0531 25.5092ZM84.107 27.9244C84.107 26.3452 84.5692 25.0757 85.4321 24.1468C86.3258 23.2179 87.5585 22.7534 89.1301 22.7534C90.6093 22.7534 91.7803 23.1869 92.6124 24.0848C93.4444 24.9828 93.8759 26.1904 93.8759 27.7076C93.8759 29.2558 93.4136 30.4944 92.5507 31.4233C91.6571 32.3522 90.4552 32.8166 88.9144 32.8166C87.4352 32.8166 86.2642 32.3831 85.4013 31.5162C84.5692 30.6182 84.107 29.4106 84.107 27.9244ZM86.4491 27.8315C86.4491 28.8223 86.6648 29.5964 87.127 30.1228C87.5893 30.6492 88.2364 30.9278 89.0685 30.9278C89.8697 30.9278 90.5168 30.6801 90.9483 30.1228C91.3797 29.5964 91.5954 28.8223 91.5954 27.7695C91.5954 26.7477 91.3797 25.9736 90.9483 25.4163C90.5168 24.8899 89.8697 24.6112 89.0993 24.6112C88.2672 24.6112 87.6509 24.8899 87.1887 25.4473C86.6956 26.0356 86.4491 26.8097 86.4491 27.8315ZM101.364 24.828H98.0053V32.5689H95.7249V24.828H94.1224V22.9701H95.7249V21.6387C95.7249 20.6479 96.0638 19.8118 96.711 19.1616C97.3581 18.5114 98.1902 18.2017 99.2071 18.2017C99.4845 18.2017 99.731 18.2327 99.9467 18.2327C100.162 18.2327 100.347 18.2946 100.501 18.3565V20.3073C100.44 20.2763 100.286 20.2144 100.101 20.1524C99.9159 20.0905 99.7002 20.0595 99.4537 20.0595C98.9914 20.0595 98.6216 20.2144 98.3751 20.493C98.1285 20.7717 98.0053 21.2362 98.0053 21.7935V22.9392H101.364V20.7717L103.614 20.0905V22.9392H105.894V24.797H103.614V29.2868C103.614 29.8751 103.737 30.2776 103.922 30.5253C104.138 30.773 104.477 30.8969 104.939 30.8969C105.062 30.8969 105.216 30.8659 105.401 30.804C105.586 30.7421 105.74 30.6801 105.864 30.5872V32.4451C105.709 32.538 105.494 32.5999 105.155 32.6618C104.816 32.7237 104.508 32.7547 104.169 32.7547C103.213 32.7547 102.505 32.507 102.042 32.0116C101.58 31.5162 101.333 30.7421 101.333 29.7203L101.364 24.828Z" fill="black"></path><path d="M12.3968 14.7333H1.85754V25.323H12.3968V14.7333Z" fill="black"></path><path d="M24.0451 14.7333H13.5058V25.323H24.0451V14.7333Z" fill="black"></path><path d="M12.3968 26.4377H1.85754V37.0273H12.3968V26.4377Z" fill="black"></path><path d="M24.0451 26.4377H13.5058V37.0273H24.0451V26.4377Z" fill="black"></path></svg> 