<?xml version="1.0" encoding="UTF-8"?> <svg xmlns="http://www.w3.org/2000/svg" width="141" height="60" viewBox="0 0 141 60" fill="none"><path d="M60.1653 22.2307V37.9222H57.455V25.6087H57.4188L52.5764 37.9222H50.7695L45.8187 25.6087H45.7826V37.9222H43.2891V22.2307H47.1919L51.673 33.854H51.7452L56.4792 22.2307H60.1653ZM62.4058 23.4293C62.4058 22.9935 62.5503 22.6302 62.8756 22.3397C63.2008 22.0491 63.5622 21.9038 63.9959 21.9038C64.4656 21.9038 64.8631 22.0491 65.1523 22.3397C65.4414 22.6302 65.622 22.9935 65.622 23.4293C65.622 23.8652 65.4775 24.2284 65.1523 24.519C64.827 24.8096 64.4656 24.9549 63.9959 24.9549C63.5261 24.9549 63.1647 24.8096 62.8756 24.519C62.5865 24.1921 62.4058 23.8289 62.4058 23.4293ZM65.3329 26.6621V37.9222H62.6949V26.6621H65.3329ZM73.3193 35.9971C73.7168 35.9971 74.1505 35.9244 74.6203 35.7065C75.0901 35.5249 75.5237 35.2706 75.9212 34.98V37.45C75.4876 37.7042 75.0178 37.8858 74.4757 37.9948C73.9337 38.1038 73.3555 38.1764 72.705 38.1764C71.0427 38.1764 69.7056 37.6679 68.6937 36.6145C67.6457 35.5612 67.1398 34.2172 67.1398 32.619C67.1398 30.8029 67.6819 29.3136 68.7299 28.1513C69.7779 26.989 71.2595 26.4078 73.2109 26.4078C73.7168 26.4078 74.2228 26.4805 74.6926 26.5894C75.1985 26.6984 75.596 26.88 75.8851 27.0253V29.5679C75.4876 29.2773 75.0539 29.0231 74.6564 28.8778C74.2228 28.7325 73.7891 28.6235 73.3555 28.6235C72.3075 28.6235 71.4763 28.9504 70.8258 29.6406C70.1754 30.3307 69.8863 31.2388 69.8863 32.4011C69.8863 33.5271 70.2115 34.4352 70.8258 35.0527C71.4402 35.6701 72.2713 35.9971 73.3193 35.9971ZM83.4017 26.4805C83.6185 26.4805 83.7992 26.4805 83.9799 26.5168C84.1606 26.5531 84.3051 26.5894 84.4135 26.6258V29.3136C84.269 29.2047 84.0883 29.0957 83.7992 29.0231C83.5101 28.9504 83.221 28.8778 82.8235 28.8778C82.173 28.8778 81.631 29.1684 81.1973 29.7132C80.7637 30.258 80.5107 31.0935 80.5107 32.2558V37.9222H77.8727V26.6621H80.5107V28.4419H80.5468C80.7998 27.8244 81.1612 27.3522 81.631 26.989C82.1369 26.6621 82.7151 26.4805 83.4017 26.4805ZM84.5581 32.4737C84.5581 30.6213 85.1002 29.132 86.112 28.0423C87.16 26.9527 88.6055 26.4078 90.4485 26.4078C92.1831 26.4078 93.5563 26.9163 94.532 27.9697C95.5078 29.0231 96.0137 30.4397 96.0137 32.2195C96.0137 34.0356 95.4716 35.4885 94.4598 36.5782C93.4118 37.6679 92.0024 38.2127 90.1955 38.2127C88.4609 38.2127 87.0877 37.7042 86.0759 36.6872C85.064 35.6338 84.5581 34.2172 84.5581 32.4737ZM87.3045 32.3648C87.3045 33.5271 87.5575 34.4352 88.0996 35.0527C88.6416 35.6701 89.4005 35.9971 90.3762 35.9971C91.3158 35.9971 92.0747 35.7065 92.5806 35.0527C93.0865 34.4352 93.3395 33.5271 93.3395 32.2921C93.3395 31.0935 93.0865 30.1854 92.5806 29.5316C92.0747 28.9141 91.3158 28.5872 90.4124 28.5872C89.4367 28.5872 88.7139 28.9141 88.1718 29.5679C87.5575 30.258 87.3045 31.1661 87.3045 32.3648ZM99.9527 29.6406C99.9527 30.0038 100.061 30.3307 100.314 30.5486C100.567 30.7666 101.073 31.0208 101.904 31.3477C102.952 31.7836 103.711 32.2558 104.108 32.7643C104.542 33.3092 104.759 33.9267 104.759 34.6894C104.759 35.7428 104.361 36.5782 103.53 37.232C102.735 37.8858 101.615 38.1764 100.242 38.1764C99.772 38.1764 99.2661 38.1038 98.6879 37.9948C98.1097 37.8858 97.6399 37.7405 97.2424 37.5589V34.9437C97.7121 35.2706 98.2542 35.5612 98.7963 35.7428C99.3383 35.9244 99.8443 36.0334 100.314 36.0334C100.892 36.0334 101.362 35.9607 101.615 35.7791C101.904 35.5975 102.049 35.3432 102.049 34.9437C102.049 34.5805 101.904 34.2899 101.615 33.9993C101.326 33.745 100.748 33.4545 99.9527 33.1275C98.977 32.728 98.2903 32.2558 97.8928 31.7473C97.4953 31.2388 97.2785 30.5849 97.2785 29.7858C97.2785 28.7688 97.676 27.9334 98.471 27.2796C99.266 26.6258 100.314 26.2989 101.579 26.2989C101.976 26.2989 102.41 26.3352 102.88 26.4441C103.35 26.5531 103.783 26.6621 104.108 26.771V29.35C103.747 29.132 103.35 28.9141 102.88 28.7325C102.41 28.5509 101.94 28.4782 101.507 28.4782C101.001 28.4782 100.603 28.5872 100.35 28.7688C100.097 29.0231 99.9527 29.2773 99.9527 29.6406ZM105.879 32.4737C105.879 30.6213 106.421 29.132 107.433 28.0423C108.481 26.9527 109.927 26.4078 111.77 26.4078C113.504 26.4078 114.877 26.9163 115.853 27.9697C116.829 29.0231 117.335 30.4397 117.335 32.2195C117.335 34.0356 116.793 35.4885 115.781 36.5782C114.733 37.6679 113.324 38.2127 111.517 38.2127C109.782 38.2127 108.409 37.7042 107.397 36.6872C106.421 35.6338 105.879 34.2172 105.879 32.4737ZM108.626 32.3648C108.626 33.5271 108.879 34.4352 109.421 35.0527C109.963 35.6701 110.722 35.9971 111.697 35.9971C112.637 35.9971 113.396 35.7065 113.902 35.0527C114.408 34.4352 114.661 33.5271 114.661 32.2921C114.661 31.0935 114.408 30.1854 113.902 29.5316C113.396 28.9141 112.637 28.5872 111.733 28.5872C110.758 28.5872 110.035 28.9141 109.493 29.5679C108.915 30.258 108.626 31.1661 108.626 32.3648ZM126.116 28.8414H122.177V37.9222H119.503V28.8414H117.624V26.6621H119.503V25.1002C119.503 23.9379 119.901 22.9571 120.659 22.1944C121.418 21.4316 122.394 21.0684 123.587 21.0684C123.912 21.0684 124.201 21.1047 124.454 21.1047C124.707 21.1047 124.924 21.1773 125.104 21.25V23.5383C125.032 23.502 124.851 23.4293 124.635 23.3567C124.418 23.2841 124.165 23.2477 123.876 23.2477C123.334 23.2477 122.9 23.4293 122.611 23.7563C122.322 24.0832 122.177 24.628 122.177 25.2818V26.6258H126.116V24.0832L128.754 23.2841V26.6258H131.428V28.8051H128.754V34.0719C128.754 34.7621 128.899 35.2343 129.116 35.5249C129.369 35.8154 129.766 35.9607 130.308 35.9607C130.453 35.9607 130.633 35.9244 130.85 35.8518C131.067 35.7791 131.248 35.7065 131.392 35.5975V37.7769C131.212 37.8858 130.959 37.9585 130.561 38.0311C130.164 38.1038 129.802 38.1401 129.405 38.1401C128.284 38.1401 127.453 37.8495 126.911 37.2684C126.369 36.6872 126.08 35.7791 126.08 34.5805L126.116 28.8414Z" fill="#737373"></path><path d="M21.7877 17H9.42871V29.4224H21.7877V17Z" fill="#F25022"></path><path d="M35.4459 17H23.0869V29.4224H35.4459V17Z" fill="#7FBA00"></path><path d="M21.7877 30.73H9.42871V43.1524H21.7877V30.73Z" fill="#00A4EF"></path><path d="M35.4459 30.73H23.0869V43.1524H35.4459V30.73Z" fill="#FFB900"></path></svg> 