<?xml version="1.0" encoding="UTF-8"?> <svg xmlns="http://www.w3.org/2000/svg" width="108" height="52" viewBox="0 0 108 52" fill="none"><path d="M26.2153 35.0593C25.0546 35.2626 23.8734 35.3235 22.6516 35.4859L18.9248 24.5985V35.9531C17.7641 36.075 16.7052 36.2375 15.6055 36.4V15.6H18.701L22.9367 27.4017V15.6H26.2153V35.0593ZM32.6301 23.2172C33.8928 23.2172 35.8274 23.1562 36.9881 23.1562V26.4061C35.5422 26.4061 33.852 26.4061 32.6301 26.4671V31.3016C34.5444 31.1797 36.4587 31.0171 38.3932 30.9561V34.0841L29.3717 34.7952V15.6H38.3932V18.85H32.6301V23.2172ZM50.51 18.8501H47.1295V33.8C46.0298 33.8 44.9301 33.8 43.8714 33.8405V18.8501H40.4909V15.6H50.5101L50.51 18.8501ZM55.8046 22.9938H60.2645V26.2437H55.8046V33.6172H52.6072V15.6H61.7104V18.85H55.8046V22.9938ZM67.0051 30.7734C68.8583 30.8139 70.7317 30.9563 72.5442 31.0577V34.2672C69.6321 34.0842 66.72 33.9016 63.7468 33.8405V15.6H67.0051V30.7734ZM75.2933 34.4906C76.3319 34.5516 77.4316 34.6126 78.4905 34.7343V15.6H75.2933V34.4906ZM92.766 15.6L88.632 25.4922L92.766 36.4C91.5441 36.2375 90.3222 36.014 89.1003 35.8109L86.7585 29.7985L84.3761 35.3235C83.1947 35.1202 82.0544 35.0593 80.8735 34.8968L85.0685 25.3702L81.2806 15.6H84.7831L86.9214 21.0641L89.2023 15.6L92.766 15.6Z" fill="black"></path></svg> 