<?xml version="1.0" encoding="UTF-8"?> <svg xmlns="http://www.w3.org/2000/svg" width="108" height="52" viewBox="0 0 108 52" fill="none"><path d="M15.2339 13.8666H22.3185C23.7358 13.9966 25.2361 14.4033 26.2331 15.4842C27.477 16.842 27.6787 18.8682 27.264 20.5951C26.9286 22.0206 25.826 23.1938 24.4558 23.6871C22.4467 24.4404 20.2642 24.0619 18.1722 24.1542C18.1646 26.1032 18.1703 28.0522 18.1665 30.0013C17.1883 30.005 16.2121 30.0032 15.2339 30.0013V13.8666ZM18.1684 16.4089C18.1684 18.1432 18.1609 19.8776 18.1722 21.6119C19.7647 21.5272 21.4082 21.8153 22.965 21.3841C24.6273 20.9076 25.0382 18.6046 24.0336 17.3448C23.4607 16.6499 22.5127 16.439 21.6514 16.4145C20.4904 16.3994 19.3294 16.4145 18.1684 16.4089Z" fill="black"></path><path d="M40.9847 13.8666H43.7647C43.7666 19.243 43.7628 24.6193 43.7666 29.9956C42.8393 30.0088 41.9139 30.0013 40.9866 30.005C40.9829 24.6249 40.9866 19.2467 40.9847 13.8666Z" fill="black"></path><path d="M77.441 13.8666H80.3152C80.3152 14.8195 80.3152 15.7724 80.3152 16.7252C79.3559 16.729 78.3985 16.7271 77.441 16.729C77.441 15.7742 77.441 14.8214 77.441 13.8666Z" fill="black"></path><path d="M90.4817 13.8666H93.2617V30.0032C92.3344 30.005 91.4071 30.0032 90.4817 30.0013C90.4798 29.5343 90.478 29.0672 90.4893 28.6002C89.1078 30.6152 86.0545 30.6848 84.1792 29.3516C82.4547 28.1181 81.7498 25.8885 81.8271 23.8416C81.8723 21.8925 82.6733 19.8211 84.3715 18.7345C86.2505 17.5406 89.1398 17.6724 90.4912 19.6026C90.4685 17.6913 90.4874 15.778 90.4817 13.8666ZM86.7349 20.5612C85.6003 20.8794 84.8917 21.9961 84.7088 23.109C84.5091 24.3557 84.6297 25.7548 85.4307 26.7811C86.4484 28.0786 88.6422 28.1257 89.7316 26.8941C90.4327 26.1314 90.5911 25.0468 90.5552 24.0487C90.5797 23.0525 90.3894 21.966 89.6562 21.2353C88.9155 20.467 87.7338 20.2674 86.7349 20.5612Z" fill="black"></path><path d="M32.2892 18.1287C33.861 17.7859 35.5931 18.0044 36.9501 18.9007C38.3165 19.7896 39.159 21.3338 39.3851 22.925C39.6773 24.8533 39.2777 26.9794 37.9452 28.4614C35.7533 30.917 31.3544 30.836 29.2944 28.2524C27.7112 26.2544 27.5491 23.3299 28.6027 21.0532C29.2925 19.5749 30.6966 18.4752 32.2892 18.1287ZM32.7886 20.4826C31.6371 20.8215 30.9774 21.9891 30.821 23.1152C30.6514 24.3618 30.7286 25.7553 31.4938 26.8061C32.4437 28.1469 34.6488 28.2373 35.7401 27.0283C36.4318 26.2694 36.6523 25.2111 36.6711 24.2131C36.6862 23.119 36.4638 21.9288 35.6722 21.1172C34.941 20.3658 33.7687 20.1794 32.7886 20.4826Z" fill="black"></path><path d="M47.9734 18.5444C49.4529 17.8307 51.2415 17.7855 52.7757 18.3561C54.0365 18.8288 54.9054 20.0754 55.0053 21.4068C55.1636 24.2691 54.8715 27.1503 55.2164 30.0051C54.2985 29.9957 53.3788 30.0258 52.4609 29.9806C52.4515 29.6888 52.4402 29.3969 52.4289 29.105C50.6346 30.5889 47.6059 30.6492 46.0058 28.8489C44.9334 27.5834 44.9824 25.4498 46.2338 24.3181C47.0141 23.6044 48.0488 23.256 49.0628 23.0263C50.171 22.7927 51.2792 22.5574 52.3912 22.3276C52.361 21.7796 52.3158 21.1431 51.8371 20.7835C51.1605 20.292 50.2238 20.307 49.4548 20.5481C48.7857 20.7627 48.4239 21.4162 48.2203 22.0433C47.3496 21.8587 46.4826 21.6535 45.6156 21.4576C45.9737 20.2242 46.8011 19.1075 47.9734 18.5444ZM49.5377 25.0864C49.0722 25.2314 48.569 25.4028 48.2542 25.7963C47.7472 26.4291 47.9791 27.5514 48.7933 27.8038C49.8619 28.1521 51.2132 27.9393 51.969 27.0543C52.5702 26.3236 52.3252 25.3199 52.3742 24.4555C51.43 24.6683 50.4763 24.8491 49.5377 25.0864Z" fill="black"></path><path d="M68.6673 18.1487C70.2429 17.7815 71.99 17.9792 73.3602 18.8737C74.7417 19.7418 75.5955 21.2878 75.833 22.8791C76.1308 24.7923 75.7557 26.9014 74.459 28.3948C72.3632 30.8202 68.1433 30.8673 65.9759 28.5134C64.1327 26.4646 63.9348 23.2388 65.1711 20.834C65.8722 19.4838 67.1878 18.4933 68.6673 18.1487ZM69.031 20.5591C67.9473 20.9941 67.38 22.1635 67.2556 23.267C67.1199 24.491 67.2179 25.8525 67.9944 26.8638C68.9858 28.1763 71.2003 28.2159 72.2539 26.9636C72.9362 26.1614 73.1341 25.0654 73.1265 24.041C73.1114 23.0278 72.8928 21.9451 72.1842 21.1786C71.4077 20.3218 70.0771 20.1354 69.031 20.5591Z" fill="black"></path><path d="M57.18 18.2002C58.1073 18.1965 59.0346 18.1946 59.9619 18.2021C59.96 18.8085 59.9675 19.413 59.9487 20.0194C60.5801 18.5166 62.3216 17.9272 63.8444 18.1645C63.8519 19.0966 63.8444 20.0306 63.8501 20.9628C62.9096 20.8498 61.8711 20.8573 61.0776 21.4486C60.2992 21.974 59.9374 22.9382 59.9619 23.8515C59.9657 25.8966 59.9468 27.9417 59.9713 29.9867C59.0403 30.0206 58.1073 30.0037 57.1763 29.998C57.1857 26.0661 57.1763 22.1322 57.18 18.2002Z" fill="black"></path><path d="M77.4863 18.2036C78.4136 18.1961 79.3409 18.198 80.2682 18.1999C80.2663 22.1337 80.2663 26.0676 80.2682 30.0014C79.3409 30.0014 78.4136 29.9995 77.4882 30.0033C77.4882 26.0713 77.4901 22.1375 77.4863 18.2036Z" fill="black"></path><path d="M15.2339 35.6452C15.6946 35.5191 16.1711 35.5718 16.6406 35.568C18.6381 35.5774 20.6355 35.5586 22.633 35.5774C22.6049 36.5002 22.626 37.4248 22.6031 38.3475H15.2339V35.6452Z" fill="black"></path><path d="M23.3058 35.6452C23.7665 35.5191 24.243 35.5718 24.7125 35.568C26.71 35.5774 28.7074 35.5586 30.7049 35.5774C30.6768 36.5002 30.6979 37.4248 30.675 38.3475H23.3058V35.6452Z" fill="black"></path><path d="M31.3777 35.6452C31.8384 35.5191 32.3149 35.5718 32.7844 35.568C34.7819 35.5774 36.7793 35.5586 38.7768 35.5774C38.7487 36.5002 38.7698 37.4248 38.7469 38.3475H31.3777V35.6452Z" fill="black"></path><path d="M39.4498 35.6454C39.9105 35.5193 40.387 35.572 40.8565 35.5682C42.854 35.5776 44.8515 35.5588 46.849 35.5776C46.8208 36.5004 46.8419 37.425 46.8191 38.3477H39.4498V35.6454Z" fill="black"></path><path d="M47.521 35.6454C47.9817 35.5193 48.4582 35.572 48.9277 35.5682C50.9252 35.5776 52.9226 35.5588 54.9201 35.5776C54.892 36.5004 54.9131 37.425 54.8902 38.3477H47.521V35.6454Z" fill="black"></path></svg> 