<?xml version="1.0" encoding="UTF-8"?> <svg xmlns="http://www.w3.org/2000/svg" width="141" height="60" viewBox="0 0 141 60" fill="none"><path d="M115.843 26.7218C117.191 26.7218 118.283 25.6294 118.283 24.2818C118.283 22.9342 117.191 21.8418 115.843 21.8418C114.496 21.8418 113.403 22.9342 113.403 24.2818C113.403 25.6294 114.496 26.7218 115.843 26.7218Z" fill="#FF4500"></path><path d="M95.3171 20.299C96.0505 20.299 96.6552 20.8782 96.6958 21.602L96.698 21.6802V39.4259C96.698 40.1855 96.0767 40.8068 95.3171 40.8068C94.6499 40.8068 94.0743 40.3238 93.9592 39.6788C93.0159 40.6228 91.8188 41.1062 90.4146 41.1062C86.7782 41.1062 83.8322 37.8146 83.8322 33.7638C83.8322 29.7128 86.7784 26.4212 90.4146 26.4212C91.7648 26.4212 92.902 26.8471 93.8266 27.7187L93.9364 27.8256V21.68C93.9364 20.9204 94.5577 20.299 95.3173 20.299M109.726 20.299C110.459 20.299 111.063 20.8782 111.104 21.602L111.106 21.6802V39.4259C111.106 40.1855 110.485 40.8068 109.726 40.8068C109.058 40.8068 108.482 40.3238 108.368 39.6788C107.424 40.6228 106.227 41.1062 104.823 41.1062C101.187 41.1062 98.2407 37.8146 98.2407 33.7638C98.2407 29.7128 101.187 26.4212 104.823 26.4212C106.173 26.4212 107.31 26.8471 108.235 27.7187L108.344 27.8256V21.68C108.344 20.9201 108.966 20.2988 109.725 20.2988M76.3519 26.398C79.4134 26.398 81.991 28.7462 82.7273 31.9223L82.7523 32.0551C82.7896 32.2666 82.8239 32.5355 82.8423 32.912C82.8871 33.7612 82.2379 34.6317 81.1054 34.6822L81.0011 34.6844V34.6383H72.6005C72.9458 36.7327 74.5109 38.3209 76.3519 38.3209C77.9172 38.3209 78.8839 37.4465 79.3903 37.0089C79.9194 36.5718 80.6329 36.4337 81.2083 36.8249C81.899 37.3084 82.014 38.2981 81.4388 38.9426C80.265 40.2546 78.631 41.0832 76.3519 41.0832C72.7155 41.0832 69.7693 37.7916 69.7693 33.7406C69.7693 29.6896 72.7155 26.398 76.3519 26.398ZM122.856 23.3579L122.936 23.3604C123.647 23.4047 124.186 24.0054 124.223 24.7088L124.225 24.7874V26.7209H125.491C126.182 26.7209 126.757 27.3192 126.711 28.0324C126.667 28.6744 126.133 29.1462 125.519 29.1815L125.445 29.1837H124.225V39.4491C124.225 40.2085 123.627 40.807 122.822 40.8529C122.088 40.8529 121.483 40.2737 121.443 39.5503L121.44 39.4722V29.2066H120.267C119.576 29.2066 119 28.6081 119.047 27.8946C119.091 27.2526 119.625 26.7811 120.238 26.7457L120.312 26.7435H121.463V24.7413C121.463 23.9623 122.087 23.356 122.856 23.3577M68.7566 26.4904C69.4012 26.6054 69.9074 27.1578 69.9074 27.8483C69.9074 28.5363 69.3937 29.1172 68.738 29.1995L68.6644 29.2066H68.3882C65.7595 28.9117 63.8449 30.9603 63.7867 33.4837L63.7852 33.6023V39.4256C63.7852 40.2314 63.1178 40.8527 62.3121 40.8066C61.6017 40.7627 61.063 40.162 61.0256 39.4586L61.0234 39.3795V28.1014C61.0234 27.342 61.6447 26.7207 62.4043 26.7207C63.0708 26.7207 63.7378 27.214 63.783 28.0144L63.7854 28.1014V28.2858C64.8671 26.9275 66.7542 26.1914 68.7568 26.4904M115.848 27.9405C116.581 27.9405 117.185 28.5196 117.226 29.2434L117.228 29.3216V39.4256C117.228 40.1855 116.607 40.8066 115.848 40.8066C115.114 40.8066 114.51 40.2276 114.469 39.5038L114.467 39.4256V29.3216C114.467 28.5618 115.088 27.9405 115.848 27.9405ZM90.4379 29.1605C88.3202 29.1605 86.6171 31.2323 86.6171 33.7641C86.6171 36.3189 88.3202 38.367 90.4379 38.367C92.5322 38.367 94.2587 36.3187 94.2587 33.7641C94.2587 31.209 92.5555 29.1605 90.4379 29.1605ZM104.823 29.1605C102.705 29.1605 101.002 31.2323 101.002 33.7641C101.002 36.3189 102.705 38.367 104.823 38.367C106.94 38.367 108.644 36.3187 108.644 33.7641C108.644 31.209 106.94 29.1605 104.823 29.1605ZM76.3291 29.1837C74.7094 29.1837 73.3098 30.3928 72.7529 32.1232L72.7155 32.2448H79.9427C79.4134 30.4725 77.986 29.1837 76.3291 29.1837Z" fill="#222222"></path><path d="M34.0013 49.5759C44.6534 49.5759 53.2887 40.9404 53.2887 30.288C53.2887 19.6355 44.6534 11 34.0013 11C23.3491 11 14.7139 19.6355 14.7139 30.288C14.7139 40.9404 23.3491 49.5759 34.0013 49.5759Z" fill="#FF4500"></path><path d="M46.8683 30.2862C46.8683 28.7211 45.6024 27.4782 44.0604 27.4782C43.3318 27.4772 42.6309 27.7575 42.1039 28.2607C40.1706 26.8798 37.5237 25.982 34.5775 25.8672L35.8662 19.8366L40.0554 20.7343C40.1015 21.7932 40.9759 22.6448 42.058 22.6448C43.1627 22.6448 44.0602 21.7471 44.0602 20.6419C44.0602 19.5371 43.1627 18.6396 42.058 18.6396C41.2753 18.6396 40.5849 19.1 40.2626 19.7677L35.5904 18.7777C35.4523 18.7547 35.3142 18.7777 35.222 18.8469C35.107 18.9161 35.0378 19.0309 35.0152 19.1692L33.5878 25.8898C30.596 25.982 27.9029 26.8798 25.9466 28.284C25.4197 27.7808 24.7189 27.5004 23.9903 27.5013C22.425 27.5013 21.1824 28.7669 21.1824 30.3092C21.1824 31.4601 21.8727 32.4265 22.8397 32.8643C22.7926 33.1457 22.7695 33.4306 22.7706 33.7159C22.7706 38.0426 27.8111 41.5646 34.0253 41.5646C40.2398 41.5646 45.2803 38.0657 45.2803 33.7159C45.2803 33.4395 45.2571 33.14 45.2112 32.8641C45.7052 32.6381 46.124 32.2751 46.4177 31.8181C46.7114 31.3611 46.8677 30.8294 46.868 30.2862M27.5804 32.2884C27.5804 31.1837 28.4781 30.2862 29.5832 30.2862C30.6879 30.2862 31.5854 31.1837 31.5854 32.2884C31.5854 33.3932 30.6879 34.2911 29.5832 34.2911C28.4781 34.3139 27.5804 33.3932 27.5804 32.2884ZM38.7895 37.6055C37.4086 38.9865 34.7845 39.0787 34.0251 39.0787C33.2427 39.0787 30.6188 38.9634 29.2605 37.6055C29.2114 37.5576 29.1724 37.5003 29.1457 37.437C29.1191 37.3737 29.1053 37.3058 29.1053 37.2371C29.1053 37.1685 29.1191 37.1005 29.1457 37.0373C29.1724 36.974 29.2114 36.9167 29.2605 36.8687C29.3085 36.8197 29.3657 36.7806 29.429 36.754C29.4922 36.7274 29.5602 36.7137 29.6288 36.7137C29.6974 36.7137 29.7653 36.7274 29.8286 36.754C29.8918 36.7806 29.9491 36.8197 29.9971 36.8687C30.8719 37.7436 32.7132 38.0426 34.0251 38.0426C35.3371 38.0426 37.2012 37.7436 38.0527 36.8687C38.1007 36.8196 38.158 36.7806 38.2213 36.7539C38.2845 36.7273 38.3525 36.7135 38.4211 36.7135C38.4898 36.7135 38.5577 36.7273 38.621 36.7539C38.6843 36.7806 38.7416 36.8196 38.7895 36.8687C38.8787 36.9708 38.9278 37.1017 38.9278 37.2371C38.9278 37.3726 38.8787 37.5035 38.7895 37.6055ZM38.4209 34.3139C37.3162 34.3139 36.4187 33.4164 36.4187 32.3117C36.4187 31.207 37.3162 30.3095 38.4209 30.3095C39.5261 30.3095 40.4235 31.207 40.4235 32.3117C40.4235 33.3932 39.5261 34.3139 38.4209 34.3139Z" fill="white"></path></svg> 