<?xml version="1.0" encoding="UTF-8"?> <svg xmlns="http://www.w3.org/2000/svg" width="288" height="60" viewBox="0 0 288 60" fill="none"><path d="M118.657 18.5184C118.644 18.4353 118.604 18.359 118.542 18.3015C118.481 18.244 118.402 18.2085 118.318 18.2007C118.182 18.179 115.206 17.973 115.206 17.973L112.936 15.7032C112.732 15.4755 112.279 15.5427 112.107 15.5904C112.086 15.5904 111.654 15.726 110.95 15.9548C110.265 13.9746 109.052 12.1571 106.918 12.1571H106.736C106.123 11.3655 105.375 11 104.741 11C99.7696 11.0217 97.399 17.2225 96.6508 20.3913L93.1762 21.4573C92.1102 21.7967 92.0701 21.8216 91.9291 22.8378L89 45.43L110.958 49.54L122.859 46.9742C122.859 46.9525 118.68 18.7353 118.659 18.5206L118.657 18.5184ZM109.732 16.3365C109.179 16.5187 108.54 16.7009 107.872 16.9059V16.497C107.893 15.4755 107.738 14.4583 107.418 13.4866C108.531 13.658 109.279 14.9072 109.732 16.3365ZM106.078 13.7491C106.441 14.8194 106.62 15.9472 106.575 17.0783V17.2822L102.736 18.4751C103.487 15.6696 104.872 14.2826 106.076 13.761L106.078 13.7491ZM104.603 12.3686C104.831 12.374 105.051 12.4445 105.238 12.5724C103.637 13.3185 101.944 15.2011 101.217 18.9707L98.1809 19.9011C99.0376 17.0403 101.036 12.3621 104.601 12.3621L104.603 12.3686Z" fill="#95BF47"></path><path d="M118.32 18.1999C118.184 18.1782 115.207 17.9722 115.207 17.9722L112.938 15.7024C112.854 15.6157 112.74 15.568 112.62 15.5669L110.963 49.536L122.864 46.9702L118.66 18.5383C118.632 18.3648 118.495 18.2259 118.321 18.1988L118.32 18.1999Z" fill="#5E8E3E"></path><path d="M106.919 24.7845L105.442 29.144C104.549 28.7102 103.572 28.4792 102.581 28.4608C100.264 28.4608 100.152 29.914 100.152 30.2783C100.152 32.2629 105.352 33.0263 105.352 37.7046C105.352 41.383 103.013 43.7449 99.8786 43.7449C96.109 43.7449 94.1787 41.4058 94.1787 41.4058L95.1807 38.0657C95.1807 38.0657 97.1544 39.7683 98.8375 39.7683C99.0387 39.7762 99.2393 39.7432 99.4274 39.6712C99.6154 39.5992 99.7868 39.4898 99.9312 39.3495C100.076 39.2093 100.19 39.0411 100.267 38.8553C100.345 38.6694 100.384 38.4698 100.382 38.2685C100.382 35.655 96.1123 35.5422 96.1123 31.2738C96.1123 27.6843 98.6998 24.187 103.901 24.187C105.945 24.2174 106.922 24.7835 106.922 24.7835L106.919 24.7845Z" fill="white"></path><path d="M133.19 31.2778C132.341 30.8223 131.902 30.4286 131.902 29.8897C131.902 29.2065 132.499 28.7651 133.467 28.7651C134.186 28.7807 134.895 28.9357 135.554 29.2217L136.337 26.8424C136.337 26.8424 135.62 26.2871 133.516 26.2871C130.581 26.2871 128.542 27.968 128.542 30.3299C128.542 31.666 129.488 32.694 130.759 33.4271C131.786 34.0236 132.147 34.4183 132.147 35.0408C132.147 35.6632 131.642 36.1827 130.68 36.1827C129.263 36.1827 127.925 35.4496 127.925 35.4496L127.095 37.8289C127.095 37.8289 128.334 38.6596 130.404 38.6596C133.419 38.6596 135.588 37.176 135.588 34.4953C135.604 33.0443 134.511 32.0336 133.202 31.2669L133.19 31.2778ZM145.221 26.2731C143.738 26.2731 142.564 26.9747 141.666 28.058L141.617 28.0418L142.905 21.3009H139.549L136.288 38.4676H139.646L140.771 32.5986C141.211 30.382 142.357 29.0113 143.428 29.0113C144.176 29.0113 144.471 29.5166 144.471 30.2508C144.471 30.7496 144.421 31.2452 144.324 31.7343L143.053 38.4513H146.412L147.733 31.5109C147.877 30.7919 147.961 30.0621 147.977 29.3312C147.961 27.4399 146.966 26.2991 145.222 26.2991L145.221 26.2731ZM155.556 26.2731C151.513 26.2731 148.839 29.9255 148.839 33.9726C148.839 36.5818 150.453 38.6682 153.47 38.6682C157.435 38.6682 160.122 35.1134 160.122 30.9687C160.122 28.5558 158.704 26.2731 155.561 26.2731H155.556ZM153.908 36.1035C152.766 36.1035 152.278 35.1275 152.278 33.9238C152.278 32 153.269 28.854 155.099 28.854C156.289 28.854 156.686 29.881 156.686 30.8765C156.682 32.9424 155.688 36.1035 153.91 36.1035H153.908ZM168.71 26.2731C166.433 26.2731 165.156 28.2554 165.156 28.2554H165.106L165.304 26.4704H162.329L161.646 30.9221L159.315 43.2153H162.658L163.589 38.242H163.654C163.654 38.242 164.337 38.6823 165.627 38.6823C169.572 38.6823 172.148 34.6395 172.148 30.5533C172.164 28.3031 171.157 26.2828 168.708 26.2828L168.71 26.2731ZM165.498 36.1523C164.991 36.1624 164.498 35.9882 164.11 35.6622L164.665 32.5151C165.062 30.4275 166.149 29.0254 167.322 29.0254C168.349 29.0254 168.658 29.971 168.658 30.8689C168.664 33.0562 167.379 36.1534 165.503 36.1534L165.498 36.1523ZM176.961 21.4473C176.447 21.444 175.952 21.6479 175.591 22.0134C175.23 22.3788 175.029 22.8744 175.049 23.3884C175.049 24.3796 175.686 25.0693 176.635 25.0693H176.685C176.945 25.0796 177.203 25.0367 177.445 24.9432C177.687 24.8497 177.907 24.7076 178.092 24.5257C178.277 24.3438 178.422 24.1259 178.52 23.8856C178.617 23.6452 178.664 23.3874 178.658 23.1282C178.658 22.1522 178.005 21.4473 176.977 21.4473H176.961ZM172.27 38.4351H175.628L177.91 26.5387H174.539M186.468 26.5225H184.123L184.237 25.9672C184.436 24.8253 185.118 23.7984 186.22 23.7984C186.585 23.7985 186.948 23.8533 187.297 23.961L187.945 21.3334C187.945 21.3334 187.349 21.0406 186.119 21.0406C184.922 21.0109 183.754 21.4097 182.826 22.1652C181.684 23.1412 181.145 24.5445 180.873 25.964L180.765 26.5192H179.2L178.71 29.046H180.275L178.49 38.4372H181.86L183.645 29.046H185.962L186.417 26.5192L186.468 26.5225ZM194.556 26.5387L191.506 34.723H191.457L190.626 26.5387H187.086L189.109 37.4612C189.157 37.6479 189.134 37.8461 189.044 38.0165C188.605 38.8266 187.979 39.5195 187.218 40.039C186.634 40.4402 185.998 40.759 185.326 40.9846L186.257 43.8367C187.487 43.5074 188.616 42.878 189.544 42.0051C191.076 40.5693 192.493 38.3527 193.946 35.3357L198.054 26.5322H194.555L194.556 26.5387Z" fill="black"></path></svg> 