<?xml version="1.0" encoding="UTF-8"?> <svg xmlns="http://www.w3.org/2000/svg" width="141" height="60" viewBox="0 0 141 60" fill="none"><g clip-path="url(#clip0_328_990)"><path d="M6.41614 38.2153C3.98065 38.2153 2.77474 36.8008 2.77474 34.4396V28.203H0.571289V25.771H2.77474V22.6543L5.67424 21.9214V25.771H8.71269V28.2062H5.67424V34.1808C5.67424 35.1275 6.09255 35.5278 7.01904 35.5278C7.62045 35.5278 8.10819 35.5036 8.89895 35.4088V37.8906C8.08607 38.0995 7.27473 38.2169 6.41614 38.2169V38.2153Z" fill="#0C0C27"></path><path d="M17.7005 38.0471V30.4668C17.7005 29.0491 17.238 28.1763 15.7069 28.1763C13.9675 28.1763 13.2257 30.0649 13.2257 31.5759V38.0471H10.3262V21.001H13.2257V27.0672C13.9233 26.0288 15.265 25.4614 16.5182 25.4614C19.0926 25.4614 20.6 27.326 20.6 29.8544V38.0471H17.7005Z" fill="#0C0C27"></path><path d="M33.1834 32.8335H25.1146C25.0909 33.7771 25.4161 34.674 25.9953 35.2414C26.4104 35.6432 26.9913 35.9985 27.7821 35.9985C28.6155 35.9985 29.1253 35.8329 29.5451 35.4069C29.7961 35.1466 30.0076 34.817 30.1244 34.3686H32.9072C32.8377 35.1015 32.3515 36.0724 31.8875 36.6382C30.8694 37.8662 29.3605 38.3613 27.831 38.3613C26.1832 38.3613 24.9757 37.7714 24.0271 36.8488C22.8212 35.6689 22.1709 33.9458 22.1709 31.9399C22.1709 29.9339 22.7501 28.2317 23.9087 27.0262C24.8131 26.0842 26.1106 25.4702 27.7584 25.4702C29.5467 25.4702 31.1662 26.2032 32.1637 27.7366C33.0461 29.0836 33.2528 30.4755 33.2087 32.0122C33.2055 32.0074 33.1834 32.5748 33.1834 32.8352V32.8335ZM29.5657 28.5355C29.1711 28.1095 28.5697 27.825 27.7332 27.825C26.8524 27.825 26.1342 28.2043 25.7144 28.7685C25.3008 29.3102 25.1146 29.8776 25.0909 30.6797H30.3075C30.2839 29.7619 30.0282 29.0514 29.5657 28.5338V28.5355Z" fill="#0C0C27"></path><path d="M39.4322 24.1392V38.0493H36.2912V24.1392H31.4219V21.1543H44.2986V24.1392H39.4307H39.4322Z" fill="#0C0C27"></path><path d="M49.1123 28.3899C47.0748 28.3899 46.0062 29.8784 46.0062 31.8602V38.047H43.0859V25.7683H45.542L45.7979 27.612C46.3534 26.1943 47.791 25.606 49.2055 25.606C49.5071 25.606 49.8099 25.6301 50.1095 25.6767V28.5105C49.7861 28.4366 49.4389 28.3899 49.1136 28.3899H49.1123Z" fill="#0C0C27"></path><path d="M60.7064 38.2384C59.4545 38.2384 58.7582 37.4363 58.6669 36.5153C58.1114 37.5071 56.7188 38.3558 55.0034 38.3558C52.1275 38.3558 50.6455 36.5153 50.6455 34.5061C50.6455 32.169 52.4303 30.822 54.7257 30.6597L58.2754 30.3977V29.6422C58.2754 28.4833 57.8774 27.707 56.2327 27.707C54.8883 27.707 54.1007 28.3194 54.0293 29.4526H51.2248C51.3875 26.6862 53.5433 25.4614 56.2347 25.4614C58.3004 25.4614 60.0608 26.1221 60.7552 27.9641C61.0568 28.7453 61.1056 29.6181 61.1056 30.4443V35.0012C61.1056 35.5686 61.2915 35.7824 61.7762 35.7824C61.9595 35.7824 62.1485 35.7358 62.1485 35.7358V37.9073C61.6566 38.1195 61.402 38.2384 60.7064 38.2384ZM58.2741 32.5933L55.2104 32.8296C54.3296 32.9004 53.4725 33.4453 53.4725 34.4354C53.4725 35.4255 54.2833 35.9688 55.1899 35.9688C56.9998 35.9688 58.2754 34.9771 58.2754 33.1575V32.5917L58.2741 32.5933Z" fill="#0C0C27"></path><path d="M71.591 38.0493L71.4078 36.704C70.6883 37.8372 69.342 38.3338 68.022 38.3338C66.8165 38.3338 65.8205 37.9079 65.0766 37.2955C63.6358 36.0916 62.9414 34.2479 62.9414 31.9349C62.9414 29.6219 63.6596 27.6593 65.0972 26.4538C65.8379 25.8414 66.8145 25.4621 68.0426 25.4621C69.5734 25.4621 70.6864 25.9828 71.1982 26.6194V21H74.0959V38.0493H71.591ZM68.6013 27.9438C67.6973 27.9438 67.0672 28.3666 66.6538 28.9115C66.0494 29.7135 65.89 30.8258 65.89 31.8883C65.89 32.9508 66.0526 34.084 66.6538 34.886C67.0704 35.4277 67.6986 35.8537 68.6013 35.8537C70.8741 35.8537 71.3383 33.658 71.3383 31.8883C71.3383 30.1186 70.8741 27.9438 68.6013 27.9438Z" fill="#0C0C27"></path><path d="M86.4707 32.8316H78.4017C78.3779 33.7751 78.7033 34.672 79.2826 35.2394C79.6992 35.6413 80.2804 35.9965 81.068 35.9965C81.9045 35.9965 82.4124 35.8309 82.831 35.405C83.0862 35.1446 83.2946 34.8151 83.4103 34.3666H86.193C86.1235 35.0996 85.6355 36.0704 85.1732 36.6362C84.1535 37.8643 82.6458 38.3593 81.115 38.3593C79.4703 38.3593 78.2628 37.771 77.3113 36.8468C76.1051 35.667 75.4551 33.9439 75.4551 31.9379C75.4551 29.9319 76.0344 28.2297 77.193 27.0242C78.097 26.0823 79.3944 25.4683 81.0423 25.4683C82.8291 25.4683 84.4499 26.2012 85.4491 27.7346C86.3299 29.0816 86.5382 30.4736 86.4926 32.0102C86.4926 32.0054 86.472 32.5728 86.472 32.8332L86.4707 32.8316ZM82.8516 28.5319C82.4568 28.1059 81.8556 27.8214 81.0185 27.8214C80.1383 27.8214 79.4201 28.2008 79.0016 28.765C78.583 29.3066 78.4004 29.874 78.3747 30.6761H83.5929C83.5697 29.7583 83.3171 29.0479 82.8516 28.5303V28.5319Z" fill="#0C0C27"></path><path d="M98.9626 36.255C97.8734 37.4123 96.2255 38.0489 94.3456 38.0489H87.9463V21.3081H94.3456C96.2255 21.3081 97.8715 21.9446 98.9626 23.1019C100.654 24.8732 100.888 27.3534 100.888 29.668C100.888 31.9827 100.653 34.4853 98.9626 36.2566V36.255ZM96.664 24.9906C96.1085 24.4248 95.2958 24.0438 94.3456 24.0438H90.9379V35.3083H94.3456C95.2958 35.3083 96.1085 34.9322 96.664 34.3648C97.8226 33.185 97.8464 31.2015 97.8464 29.6664C97.8464 28.1314 97.8226 26.1688 96.664 24.9906Z" fill="#0C0C27"></path><path d="M112.843 32.8335H104.771C104.747 33.7771 105.072 34.674 105.653 35.2414C106.071 35.6432 106.647 35.9985 107.437 35.9985C108.27 35.9985 108.781 35.8329 109.2 35.4069C109.456 35.1466 109.662 34.817 109.779 34.3686H112.56C112.49 35.1015 112.003 36.0724 111.541 36.6382C110.521 37.8662 109.013 38.3613 107.483 38.3613C105.835 38.3613 104.632 37.7714 103.68 36.8488C102.474 35.6673 101.825 33.9458 101.825 31.9399C101.825 29.9339 102.406 28.2317 103.563 27.0262C104.468 26.0842 105.768 25.4702 107.414 25.4702C109.201 25.4702 110.823 26.2032 111.822 27.7366C112.702 29.0836 112.91 30.4755 112.865 32.0122C112.865 32.0074 112.841 32.5748 112.841 32.8352L112.843 32.8335ZM109.225 28.5355C108.83 28.1095 108.226 27.825 107.392 27.825C106.512 27.825 105.792 28.2043 105.374 28.7685C104.958 29.3102 104.769 29.8776 104.749 30.6797H109.966C109.945 29.7619 109.689 29.0514 109.227 28.5338L109.225 28.5355Z" fill="#0C0C27"></path><path d="M125.209 21V38.0493H128.106V34.8153L130.031 32.6904L133.417 38.0493H136.779L132.001 30.5156L136.314 25.7691H132.675L128.104 30.7535V21H125.208H125.209Z" fill="#0C0C27"></path><path d="M120.623 30.7754C119.438 30.5857 119.136 30.5648 118.049 30.4202C117.398 30.3254 116.66 30.065 116.66 29.1954C116.66 28.554 117.078 28.1072 117.587 27.8934C118.028 27.7069 118.423 27.7069 118.838 27.7069C119.44 27.7069 120.069 27.9191 120.415 28.2744C120.694 28.5798 120.902 28.9575 120.902 29.4317H123.663C123.663 28.5347 123.248 27.6121 122.596 26.9016C121.716 25.934 120.254 25.4614 118.816 25.4614C117.378 25.4614 116.034 25.9115 115.152 26.6862C114.434 27.3276 113.926 28.2004 113.926 29.4526C113.926 31.0101 115.037 32.3812 116.686 32.7348C117.751 32.9711 118.957 33.0402 120.023 33.2058C120.767 33.3263 121.231 33.7973 121.231 34.5045C121.231 35.8515 119.746 36.0653 118.773 36.0653C117.94 36.0653 117.405 35.8981 116.942 35.5204C116.631 35.2648 116.396 34.8099 116.322 34.3486H113.594C113.678 35.3918 114.212 36.3048 114.854 36.9348C115.852 37.9025 117.22 38.3525 118.75 38.3525C120.398 38.3525 121.901 37.9282 122.875 36.9348C123.502 36.2983 123.919 35.4223 123.919 34.2425C123.914 32.3088 122.525 31.0808 120.621 30.7738L120.623 30.7754Z" fill="#0C0C27"></path><path d="M139.022 25.7304C138.13 25.7304 137.469 25.0231 137.469 24.1262C137.469 23.2293 138.13 22.5156 139.022 22.5156C139.914 22.5156 140.572 23.2261 140.572 24.1198C140.575 25.0167 139.914 25.7304 139.022 25.7304ZM139.022 22.7985C138.261 22.7985 137.761 23.3643 137.761 24.1262C137.761 24.8881 138.264 25.4507 139.022 25.4507C139.78 25.4507 140.283 24.8881 140.283 24.123C140.283 23.3579 139.781 22.7985 139.022 22.7985ZM139.371 24.9347L139.096 24.3207H138.777V24.9347H138.487V23.2582H139.092C139.404 23.2582 139.673 23.4431 139.673 23.7838C139.673 24.0008 139.582 24.1744 139.378 24.2677L139.682 24.9347H139.373H139.371ZM139.09 23.5315H138.768V24.0474H139.09C139.26 24.0474 139.374 23.9687 139.374 23.7871C139.374 23.6054 139.243 23.5299 139.09 23.5299V23.5315Z" fill="#0C0C27"></path></g><defs><clipPath id="clip0_328_990"><rect width="140.571" height="60" fill="white"></rect></clipPath></defs></svg> 