<?xml version="1.0" encoding="UTF-8"?> <svg xmlns="http://www.w3.org/2000/svg" width="141" height="60" viewBox="0 0 141 60" fill="none"><path d="M34.4548 25.2007C36.6372 26.7599 39.3109 27.6774 42.1984 27.6774V22.1237C41.6519 22.1238 41.1068 22.0668 40.5721 21.9538V26.3253C37.6849 26.3253 35.0117 25.4078 32.8285 23.8486V35.1823C32.8285 40.852 28.2302 45.4478 22.5581 45.4478C20.4418 45.4478 18.4745 44.8082 16.8406 43.7114C18.7054 45.6175 21.3065 46.7999 24.1839 46.7999C29.8565 46.7999 34.455 42.2041 34.455 36.5344V25.2005M36.4612 19.5976C35.3137 18.3478 34.6088 16.7556 34.4548 15.0659V14.3516H32.9137C33.3016 16.5633 34.6247 18.4525 36.461 19.5978M20.4282 39.3605C19.805 38.544 19.4682 37.5448 19.4698 36.5176C19.4698 33.9247 21.573 31.8222 24.168 31.8222C24.6515 31.8222 25.1322 31.896 25.5931 32.0422V26.3645C25.0545 26.2909 24.511 26.2596 23.9675 26.2707V30.6903C23.5064 30.5442 23.0255 30.47 22.5418 30.4703C19.9467 30.4703 17.8436 32.5725 17.8436 35.166C17.8436 36.9995 18.8948 38.5871 20.4282 39.3605Z" fill="#FF004F"></path><path d="M32.8284 23.8486C35.0116 25.4078 37.6848 26.3251 40.5723 26.3251V21.9536C38.99 21.6155 37.5527 20.7919 36.4609 19.5978C34.6246 18.4525 33.3015 16.563 32.9136 14.3516H28.8659V36.5337C28.8568 39.1197 26.7568 41.2136 24.1677 41.2136C22.6418 41.2136 21.2861 40.4865 20.4276 39.3605C18.8947 38.5871 17.8432 36.9995 17.8432 35.166C17.8432 32.5728 19.9464 30.4703 22.5414 30.4703C23.0385 30.4703 23.5179 30.5478 23.9672 30.6903V26.271C18.3947 26.386 13.9131 30.937 13.9131 36.534C13.9131 39.3279 15.0291 41.8606 16.8405 43.7114C18.531 44.8464 20.522 45.451 22.5582 45.4476C28.2304 45.4476 32.8286 40.8515 32.8286 35.1821L32.8284 23.8486Z" fill="black"></path><path d="M40.5711 21.9537V20.7717C39.1178 20.7738 37.6931 20.367 36.4599 19.5979C37.5515 20.7923 38.9888 21.6158 40.5711 21.9537ZM32.9127 14.3521C32.8757 14.1408 32.8473 13.9282 32.8275 13.7146V13H27.2385V35.1824C27.2294 37.7679 25.1301 39.8618 22.5405 39.8618C21.8064 39.863 21.0823 39.6914 20.4267 39.3611C21.2854 40.4871 22.6409 41.2139 24.1668 41.2139C26.7557 41.2139 28.8559 39.1203 28.8649 36.5343V14.3519L32.9127 14.3521ZM23.9665 26.2715V25.0132C23.4994 24.9495 23.0286 24.9175 22.5573 24.9176C16.8846 24.9171 12.2861 29.5131 12.2861 35.1824C12.2861 38.7365 14.0934 41.8689 16.8398 43.7115C15.0284 41.861 13.9124 39.328 13.9124 36.5341C13.9124 30.9373 18.3938 26.3866 23.9665 26.2715Z" fill="#00F2EA"></path><path d="M105.333 40.8004C109.392 40.8004 112.682 37.5368 112.682 33.511C112.682 29.4853 109.392 26.2212 105.333 26.2212H104.226C108.284 26.2212 111.575 29.4855 111.575 33.511C111.575 37.5366 108.284 40.8004 104.226 40.8004H105.333Z" fill="#FF004F"></path><path d="M104.125 26.2212H103.018C98.959 26.2212 95.668 29.4855 95.668 33.511C95.668 37.5366 98.959 40.8004 103.018 40.8004H104.125C100.066 40.8004 96.7752 37.5368 96.7752 33.511C96.7752 29.4853 100.066 26.2212 104.125 26.2212Z" fill="#00F2EA"></path><path d="M72.7161 22.926V31.2129L76.9435 27.0193H82.0774L76.7419 32.2121L82.6816 40.7997H78.152L74.025 34.9077L72.7161 36.1069V40.7H68.4878V22.926H72.7161ZM118.319 22.926V31.2129L122.548 27.0193H127.681L122.346 32.2121L128.286 40.8001H123.756L119.628 34.9082L118.319 36.1073V40.7004H114.09V22.926H118.319ZM104.225 26.2207C108.284 26.2207 111.574 29.485 111.574 33.5105C111.574 37.536 108.284 40.7999 104.225 40.7999H104.125C100.066 40.7999 96.7755 37.5363 96.7755 33.5105C96.7755 29.4847 100.066 26.2207 104.125 26.2207H104.225ZM61.643 22.926L60.4347 26.7207H56.9117V40.7002H52.5819V26.621H48.2539V22.9258L61.643 22.926ZM97.0782 22.926L95.8704 26.7207H92.3474V40.7002H88.0176V26.621H83.6896V22.9258L97.0782 22.926ZM66.6753 28.6179V40.7004H62.4486V28.6179H66.6753ZM104.176 29.9662C102.202 29.9662 100.601 31.5523 100.601 33.5105C100.601 35.4687 102.202 37.0555 104.176 37.056C106.148 37.056 107.749 35.4687 107.749 33.5105C107.749 31.5523 106.148 29.9662 104.176 29.9662ZM64.5611 22.926C65.7294 22.926 66.6753 23.8651 66.6753 25.0228C66.6753 26.1806 65.7301 27.1197 64.5611 27.1197C63.3936 27.1192 62.4486 26.1808 62.4486 25.0228C62.4486 23.8651 63.3936 22.926 64.5611 22.926Z" fill="black"></path></svg> 